<?xml version="1.0" standalone="no"?>
<!DOCTYPE svg PUBLIC "-//W3C//DTD SVG 1.1//EN" "http://www.w3.org/Graphics/SVG/1.1/DTD/svg11.dtd" >
<svg>
<metadata>
Created by FontForge 20090622 at Thu Jul 26 04:48:07 2018
 By ffonts
Charles Wright Bold by Keith Bates  &#226;&#128;&#162;  &#194;&#169; 2016   www.k-type.com  &#226;&#128;&#162;  The Bold uppercase conforms to British number plate specifications. The new lowercase, additional weights and European accented characters make the face more useful to designers.
</metadata>
<defs>
<font id="CharlesWright-Bold" horiz-adv-x="610" >
  <font-face 
    font-family="Charles Wright"
    font-weight="700"
    font-stretch="normal"
    units-per-em="1000"
    panose-1="0 0 0 0 0 0 0 0 0 0"
    ascent="800"
    descent="-200"
    x-height="590"
    cap-height="790"
    bbox="-140 -291 1342 1225"
    underline-thickness="50"
    underline-position="-50"
    unicode-range="U+0009-U+FB02"
  />
<missing-glyph horiz-adv-x="1000" 
 />
    <glyph glyph-name=".notdef" horiz-adv-x="1000" 
 />
    <glyph glyph-name="NULL" horiz-adv-x="0" 
 />
    <glyph glyph-name="NULL" horiz-adv-x="0" 
 />
    <glyph glyph-name="nonmarkingreturn" unicode="&#xd;" horiz-adv-x="1000" 
 />
    <glyph glyph-name="space" unicode=" " horiz-adv-x="330" 
 />
    <glyph glyph-name="Eth" unicode="&#xd0;" 
d="M555 180q0 -38 -14 -70.5t-38.5 -57t-57.5 -38.5t-70 -14h-320v136h40v191h-40v136h40v191h-40v136h320q37 0 70 -14t57.5 -38.5t38.5 -57.5t14 -70v-430zM415 206v378q0 70 -70 70h-110v-191h80v-136h-80v-191h110q70 0 70 70z" />
    <glyph glyph-name="eth" unicode="&#xf0;" horiz-adv-x="515" 
d="M465 140q0 -30 -10.5 -56t-29.5 -44.5t-44.5 -29t-55.5 -10.5h-135q-30 0 -55.5 10.5t-44.5 29t-29.5 44.5t-10.5 56v310q0 30 10.5 56t29.5 44.5t44.5 29t55.5 10.5h50l-42 55l-97 -24l-25 101l53 13l-42 55h155l17 -23l100 25l24 -101l-55 -14l104 -135
q15 -19 24 -42.5t9 -50.5v-309zM335 177v236q0 51 -50 51h-55q-50 0 -50 -51v-236q0 -51 50 -51h55q50 0 50 51z" />
    <glyph glyph-name="Lslash" unicode="&#x141;" 
d="M555 0h-500v309l-30 -7l-25 113l55 13v362h140v-327l80 19l28 -111l-108 -27v-208h360v-136z" />
    <glyph glyph-name="lslash" unicode="&#x142;" horiz-adv-x="240" 
d="M255 358l-70 -17v-341h-130v308l-30 -7l-25 113l55 13v363h130v-331l42 10z" />
    <glyph glyph-name="Scaron" unicode="&#x160;" 
d="M468 966l-113 -126h-98l-114 125l102 25l61 -66l60 67zM555 180q0 -38 -14 -70.5t-38.5 -57t-57.5 -38.5t-70 -14h-140q-38 0 -69 13t-54.5 35.5t-38 52.5t-18.5 65l140 35q2 -31 19 -48t51 -17h80q70 0 70 70v27q0 26 -9.5 39.5t-35.5 24.5l-182 73q-26 10 -49.5 25.5
t-42.5 38t-30 51.5t-11 66v59q0 37 14 70t38.5 57.5t57 38.5t70.5 14h140q38 0 69.5 -13.5t55 -36.5t38 -52.5t17.5 -61.5l-140 -35q-2 29 -19 46t-51 17h-80q-70 0 -70 -70v-10q0 -34 7.5 -50.5t33.5 -26.5l188 -75q58 -23 94.5 -63t36.5 -102v-77z" />
    <glyph glyph-name="scaron" unicode="&#x161;" horiz-adv-x="515" 
d="M420 766l-114 -126h-98l-113 125l102 25l60 -66l61 67zM465 140q0 -30 -10.5 -56t-29 -44.5t-44 -29t-55.5 -10.5h-136q-30 0 -55.5 10.5t-44 28.5t-29.5 43.5t-11 55.5l130 33q2 -23 13.5 -34t37.5 -11h54q50 0 50 46v4q0 11 -7 19.5t-25 15.5l-147 54q-18 7 -37 19.5
t-34.5 30.5t-25 42t-9.5 53v40q0 30 10.5 55.5t29 44.5t44 29.5t55.5 10.5h137q30 0 55.5 -10.5t44 -28.5t29 -43.5t10.5 -55.5l-130 -33q-3 45 -50 45h-55q-26 0 -38 -11t-12 -30v-6q0 -14 5.5 -22.5t22.5 -14.5l155 -57q20 -7 38.5 -19t32.5 -30t22.5 -41.5t8.5 -53.5v-39
z" />
    <glyph glyph-name="Yacute" unicode="&#xdd;" 
d="M422 952l-153 -123l-53 53l127 155zM555 742q0 -50 -25 -106l-155 -345v-291h-140v291l-155 345q-14 29 -19.5 55t-5.5 52v47h140v-31q0 -15 3 -32.5t10 -32.5l97 -226l97 226q7 16 10 33t3 32v31h140v-48z" />
    <glyph glyph-name="yacute" unicode="&#xfd;" horiz-adv-x="500" 
d="M369 752l-153 -123l-53 52l128 155zM480 590l-186 -661q-9 -34 -26 -58.5t-39 -40t-48 -23t-54 -7.5h-54v126h40q52 0 67 52l6 22l-166 590h133l87 -341q1 -3 3 -7.5t6 -4.5q5 0 6.5 4.5l2.5 7.5l89 341h133z" />
    <glyph glyph-name="HT" unicode="&#x9;" horiz-adv-x="1000" 
 />
    <glyph glyph-name="LF" unicode="&#xa;" horiz-adv-x="1000" 
 />
    <glyph glyph-name="Thorn" unicode="&#xde;" 
d="M555 344q0 -38 -14 -70.5t-38.5 -57t-57.5 -38.5t-70 -14h-180v-164h-140v790h140v-163h180q37 0 70 -14t57.5 -38.5t38.5 -57.5t14 -70v-103zM415 370v51q0 70 -70 70h-150v-191h150q70 0 70 70z" />
    <glyph glyph-name="thorn" unicode="&#xfe;" horiz-adv-x="523" 
d="M473 140q0 -30 -10.5 -56t-29 -44.5t-44 -29t-55.5 -10.5h-69q-23 0 -48 10.5t-37 25.5v-236h-130v790v200h130v-233q14 16 38 24.5t47 8.5h69q30 0 55.5 -10.5t44 -29t29 -44.5t10.5 -56v-310zM343 177v236q0 51 -50 51h-63q-50 0 -50 -51v-236q0 -50 50 -50h63
q50 0 50 50z" />
    <glyph glyph-name="Zcaron" unicode="&#x17d;" 
d="M475 965l-113 -125h-98l-114 124l102 25l61 -65l60 66zM555 0h-500v130l336 525h-336v136l500 -1v-130l-335 -524h335v-136z" />
    <glyph glyph-name="zcaron" unicode="&#x17e;" horiz-adv-x="512" 
d="M424 766l-114 -126h-98l-113 125l102 25l60 -66l61 67zM462 0h-412v100l247 364h-247v126h412v-100l-246 -364h246v-126z" />
    <glyph glyph-name="DLE" horiz-adv-x="1000" 
 />
    <glyph glyph-name="DC1" horiz-adv-x="1000" 
 />
    <glyph glyph-name="DC2" horiz-adv-x="1000" 
 />
    <glyph glyph-name="DC3" horiz-adv-x="1000" 
 />
    <glyph glyph-name="DC4" horiz-adv-x="1000" 
 />
    <glyph glyph-name="onehalf" unicode="&#xbd;" horiz-adv-x="801" 
d="M751 0h-315v47q0 30 14.5 60.5t39.5 53.5l137 128q12 11 16 20.5t4 22.5v30q0 31 -30 31h-47q-14 0 -21.5 -9t-7.5 -32l-105 28q0 24 9.5 45t25 37.5t37 26t45.5 9.5h82q24 0 45 -9.5t37 -26t25 -38t9 -46.5v-58q0 -30 -10.5 -55t-36.5 -49l-105 -98q-10 -9 -10 -13h162
v-105zM486 791l-239 -791h-115l239 791h115zM158 292h-108v498h108v-498z" />
    <glyph glyph-name="onequarter" unicode="&#xbc;" horiz-adv-x="741" 
d="M691 101h-46v-101h-105v101h-164v93l169 304h100v-292h46v-105zM486 791l-239 -791h-115l239 791h115zM158 292h-108v498h108v-498zM540 206v87l-47 -87h47z" />
    <glyph glyph-name="onesuperior" unicode="&#xb9;" horiz-adv-x="208" 
d="M158 292h-108v498h108v-498z" />
    <glyph glyph-name="threequarters" unicode="&#xbe;" horiz-adv-x="924" 
d="M874 101h-47v-101h-104v101h-164v93l169 304h99v-292h47v-105zM669 791l-239 -791h-115l239 791h115zM366 412q0 -25 -9 -46.5t-24.5 -38t-37 -26t-45.5 -9.5h-88q-25 0 -45 10.5t-34.5 27.5t-23 37.5t-9.5 41.5l105 27q0 -21 6.5 -30t23.5 -9h47q30 0 30 31v30
q0 31 -30 31h-55v104h55q30 0 30 31v31q0 30 -30 30h-47q-30 0 -30 -40l-105 28q6 51 38 84t80 33h82q24 0 45 -9.5t37 -25.5t25 -38t9 -47v-54q0 -23 -8 -42.5t-22 -31.5q30 -27 30 -75v-55zM723 206v87l-47 -87h47z" />
    <glyph glyph-name="threesuperior" unicode="&#xb3;" horiz-adv-x="416" 
d="M366 412q0 -25 -9 -46.5t-24.5 -38t-37 -26t-45.5 -9.5h-88q-25 0 -45 10.5t-34.5 27.5t-23 37.5t-9.5 41.5l105 27q0 -21 6.5 -30t23.5 -9h47q30 0 30 31v30q0 31 -30 31h-55v104h55q30 0 30 31v31q0 30 -30 30h-47q-30 0 -30 -40l-105 28q6 51 38 84t80 33h82
q24 0 45 -9.5t37 -25.5t25 -38t9 -47v-54q0 -23 -8 -42.5t-22 -31.5q30 -27 30 -75v-55z" />
    <glyph glyph-name="twosuperior" unicode="&#xb2;" horiz-adv-x="415" 
d="M365 292h-315v47q0 30 14.5 61t39.5 54l136 127q12 11 16.5 20.5t4.5 23.5v30q0 30 -30 30h-47q-14 0 -22 -8.5t-8 -31.5l-104 27q0 24 9 45t25 37.5t37.5 26t45.5 9.5h81q24 0 45.5 -9.5t37.5 -25.5t25 -38t9 -47v-58q0 -29 -10.5 -54.5t-36.5 -49.5l-105 -98
q-11 -10 -10 -13h162v-105z" />
    <glyph glyph-name="brokenbar" unicode="&#xa6;" horiz-adv-x="440" 
d="M275 463h-110v397h110v-397zM275 -70h-110v397h110v-397z" />
    <glyph glyph-name="minus" unicode="&#x2212;" horiz-adv-x="530" 
d="M475 327h-420v136h420v-136z" />
    <glyph glyph-name="multiply" unicode="&#xd7;" horiz-adv-x="536" 
d="M471 286l-95 -94l-108 109l-109 -109l-94 94l109 109l-109 109l94 94l109 -109l108 109l95 -94l-109 -109z" />
    <glyph glyph-name="RS" horiz-adv-x="1000" 
 />
    <glyph glyph-name="US" horiz-adv-x="1000" 
 />
    <glyph glyph-name="exclam" unicode="!" horiz-adv-x="250" 
d="M195 206h-140v584h140v-584zM195 0h-140v136h140v-136z" />
    <glyph glyph-name="quotedbl" unicode="&#x22;" horiz-adv-x="390" 
d="M345 850l-25 -250h-80l-25 250h130zM175 850l-25 -250h-80l-25 250h130z" />
    <glyph glyph-name="numbersign" unicode="#" horiz-adv-x="651" 
d="M621 594l-21 -120h-83l-28 -159h84l-21 -120h-84l-21 -121h-127l21 121h-101l-21 -120h-127l21 120h-83l21 120h83l28 159h-82l21 120h82l22 121h127l-22 -121h101l22 120h127l-22 -120h83zM390 474h-101l-28 -159h101z" />
    <glyph glyph-name="dollar" unicode="$" horiz-adv-x="590" 
d="M535 560l-137 -34q0 30 -19 45t-46 15h-76q-64 0 -64 -64q0 -26 7 -39.5t30 -23.5l179 -71q27 -11 50 -25.5t40 -34t26.5 -44.5t9.5 -56v-54q0 -36 -13.5 -68t-37 -55.5t-55 -37t-67.5 -13.5h-9v-71h-114v71h-10q-74 0 -118.5 44t-55.5 116l138 34q-1 -30 18 -45t46 -15
h76q36 0 50.5 18.5t14.5 52.5q0 26 -9 38t-33 22l-173 69q-57 23 -92.5 66.5t-35.5 108.5v37q0 36 13.5 68t37 55.5t55.5 37t68 13.5h10v70h114v-70h9q34 0 64 -12t53 -33.5t38 -51t18 -63.5z" />
    <glyph glyph-name="percent" unicode="%" horiz-adv-x="997" 
d="M947 125q0 -26 -9.5 -49t-26.5 -40t-39.5 -27t-48.5 -10h-78q-26 0 -48.5 10t-39 27t-26 40t-9.5 49v248q0 26 9.5 49t26 40t39 27t48.5 10h78q26 0 48.5 -10t39.5 -27t26.5 -40t9.5 -49v-248zM673 791l-239 -791h-115l239 791h115zM375 416q0 -26 -9.5 -48.5
t-26.5 -39.5t-39.5 -27t-47.5 -10h-79q-26 0 -48 9.5t-39 26.5t-26.5 40t-9.5 50v247q0 26 9.5 49t26.5 40t39 27t48 10h79q25 0 47.5 -10t39.5 -27t26.5 -40t9.5 -49v-248zM839 142v214q0 36 -35 36h-40q-35 0 -35 -36v-214q0 -36 35 -36h40q35 0 35 36zM268 433v214
q0 36 -35 36h-41q-35 0 -35 -36v-214q0 -35 35 -35h41q35 0 35 35z" />
    <glyph glyph-name="ampersand" unicode="&#x26;" horiz-adv-x="622" 
d="M577 0q-16 0 -35 0.5t-38 4t-35 12t-25 24.5q-7 -11 -19 -19t-25.5 -13t-28 -7t-26.5 -2h-110q-38 0 -71 14t-57 38t-38 57t-14 71v92q0 45 22.5 76t63.5 49q-34 17 -50 51.5t-16 70.5v91q0 37 14 70t38.5 57.5t57 38.5t70.5 14h80q34 0 65 -12.5t55 -34t40 -51t20 -63.5
l-140 -36q0 29 -21.5 45t-48.5 16h-20q-30 0 -44.5 -11t-20 -28t-5.5 -39v-43q0 -70 70 -70h90v50h140v-50h62v-136h-62v-129q0 -62 62 -62v-136zM375 327h-110q-70 0 -70 -70v-51q0 -28 9.5 -42.5t24.5 -20.5t35 -6.5t41 -0.5q29 0 49.5 14.5t20.5 45.5v131z" />
    <glyph glyph-name="quotesingle" unicode="'" horiz-adv-x="220" 
d="M175 850l-25 -250h-80l-25 250h130z" />
    <glyph glyph-name="parenleft" unicode="(" horiz-adv-x="380" 
d="M325 -42l-116 -28q-37 54 -66 108t-48.5 110.5t-29.5 117t-10 128.5q0 67 10 128t29.5 118t48.5 111t66 108l116 -29q-30 -43 -54.5 -97t-42 -111.5t-27 -116.5t-9.5 -111q0 -53 9.5 -111.5t27 -116t42 -111.5t54.5 -97z" />
    <glyph glyph-name="parenright" unicode=")" horiz-adv-x="380" 
d="M325 394q0 -68 -10 -128.5t-29.5 -117t-48.5 -110.5t-66 -108l-116 28q30 43 54.5 97t42 111.5t27 116t9.5 111.5q0 52 -9.5 111t-27 116.5t-42 111.5t-54.5 97l116 29q37 -54 66 -108t48.5 -111t29.5 -118t10 -128z" />
    <glyph glyph-name="asterisk" unicode="*" horiz-adv-x="360" 
d="M330 584l-32 -54l-83 43l-4 -94h-63l-4 95l-83 -44l-31 54l80 51l-80 50l31 55l84 -45l3 95h63l3 -95l84 45l32 -55l-81 -50z" />
    <glyph glyph-name="plus" unicode="+" horiz-adv-x="530" 
d="M475 329h-142v-144h-136v144h-142v132h142v144h136v-144h142v-132z" />
    <glyph glyph-name="comma" unicode="," horiz-adv-x="250" 
d="M195 105l-116 -250l-79 31l67 269z" />
    <glyph glyph-name="hyphen" unicode="-" horiz-adv-x="320" 
d="M300 275h-280v136h280v-136z" />
    <glyph glyph-name="period" unicode="." horiz-adv-x="250" 
d="M195 0h-140v136h140v-136z" />
    <glyph glyph-name="slash" unicode="/" horiz-adv-x="397" 
d="M397 860l-282 -930h-115l282 930h115z" />
    <glyph glyph-name="zero" unicode="0" 
d="M555 180q0 -38 -14 -70.5t-38.5 -57t-57.5 -38.5t-70 -14h-140q-38 0 -70.5 14t-57 38t-38.5 57t-14 71v430q0 37 14 70t38.5 57.5t57 38.5t70.5 14h140q37 0 70 -14t57.5 -38.5t38.5 -57.5t14 -70v-430zM415 206v378q0 70 -70 70h-80q-70 0 -70 -70v-378q0 -70 70 -70
h80q34 0 52 18.5t18 51.5z" />
    <glyph glyph-name="one" unicode="1" horiz-adv-x="250" 
d="M195 0h-140v790h140v-790z" />
    <glyph glyph-name="two" unicode="2" 
d="M555 0h-500v59q0 45 23 92t63 84l233 212q23 22 32 41.5t9 45.5v50q0 70 -70 70h-80q-32 0 -51 -16.5t-19 -45.5l-140 36q0 30 14 59t38.5 52t57 37t70.5 14h140q37 0 70 -14t57.5 -38.5t38.5 -57.5t14 -70v-97q0 -45 -16 -83t-58 -76l-218 -197q-5 -5 -7.5 -8.5
l-4.5 -6.5q-2 -4 -2 -6h306v-136z" />
    <glyph glyph-name="three" unicode="3" 
d="M555 180q0 -38 -14 -70.5t-38 -57t-57 -38.5t-71 -14h-140q-38 0 -69.5 13t-55.5 35t-38 51t-17 62l140 35q0 -26 17.5 -43t52.5 -17h80q70 0 70 70v51q0 70 -70 70h-75v136h75q70 0 70 70v51q0 70 -70 70h-80q-34 0 -52 -19t-18 -42l-140 36q4 32 18.5 61.5t38 51.5
t54.5 35t69 13h140q37 0 70 -14t57.5 -38.5t38.5 -57.5t14 -70v-91q0 -43 -18.5 -75.5t-47.5 -46.5q32 -19 49 -49.5t17 -75.5v-92z" />
    <glyph glyph-name="four" unicode="4" 
d="M555 168h-80v-168h-140v168h-280v131l280 491h140v-486h80v-136zM335 304v223l-122 -223h122z" />
    <glyph glyph-name="five" unicode="5" 
d="M555 180q0 -38 -14 -70.5t-38.5 -57t-57.5 -38.5t-70 -14h-140q-75 0 -122 40.5t-58 103.5l140 37q3 -22 19 -33.5t51 -11.5h80q70 0 70 70v72q0 70 -70 70h-96q-26 0 -40 -10.5t-19 -25.5l-135 42l74 436h413v-136h-294l-30 -170h157q37 0 70 -14t57.5 -38.5t38.5 -57.5
t14 -70v-124z" />
    <glyph glyph-name="six" unicode="6" 
d="M555 180q0 -38 -14 -70.5t-38.5 -57t-57.5 -38.5t-70 -14h-140q-38 0 -70.5 14t-57 38t-38.5 57t-14 71v430q0 37 14 70t38.5 57.5t57 38.5t70.5 14h140q37 0 69 -13.5t55.5 -36t37.5 -52t17 -62.5l-139 -35q-2 29 -19 46t-51 17h-80q-70 0 -70 -70v-121h180q37 0 70 -14
t57.5 -38.5t38.5 -57.5t14 -70v-103zM415 206v51q0 70 -70 70h-80q-70 0 -70 -70v-51q0 -70 70 -70h80q70 0 70 70z" />
    <glyph glyph-name="seven" unicode="7" 
d="M555 790v-129l-263 -661h-150l262 654h-349v136h500z" />
    <glyph glyph-name="eight" unicode="8" 
d="M555 180q0 -38 -14 -70.5t-38.5 -57t-57.5 -38.5t-70 -14h-140q-38 0 -70.5 14t-57 38.5t-38.5 57t-14 70.5v87q0 28 5 48.5t14 35.5t21 25.5t26 19.5q-11 6 -23 16t-21.5 25t-15.5 36t-6 50v87q0 37 14 70t38.5 57.5t57.5 38.5t70 14h140q37 0 70 -14t57.5 -38.5
t38.5 -57.5t14 -70v-87q0 -28 -6 -49t-15.5 -36t-21.5 -25.5t-23 -16.5q13 -9 25 -19.5t21 -25.5t14.5 -35.5t5.5 -48.5v-87zM415 533v51q0 70 -70 70h-80q-70 0 -70 -70v-51q0 -70 70 -70h80q33 0 51.5 18t18.5 52zM415 206v51q0 70 -70 70h-80q-70 0 -70 -70v-51
q0 -70 70 -70h80q33 0 51.5 18t18.5 52z" />
    <glyph glyph-name="nine" unicode="9" 
d="M555 180q0 -38 -14 -70.5t-38.5 -57t-57.5 -38.5t-70 -14h-140q-38 0 -69.5 13t-55 35.5t-37.5 52.5t-17 63l139 35q2 -29 19 -46t51 -17h80q70 0 70 70v121h-180q-38 0 -70.5 14t-57 38.5t-38.5 57t-14 70.5v103q0 37 14 70t38.5 57.5t57 38.5t70.5 14h140q37 0 70 -14
t57.5 -38t38.5 -57t14 -71v-430zM415 533v51q0 70 -70 70h-80q-70 0 -70 -70v-51q0 -70 70 -70h80q70 0 70 70z" />
    <glyph glyph-name="colon" unicode=":" horiz-adv-x="250" 
d="M195 327h-140v136h140v-136zM195 0h-140v136h140v-136z" />
    <glyph glyph-name="semicolon" unicode=";" horiz-adv-x="250" 
d="M195 327h-140v136h140v-136zM195 105l-116 -250l-79 31l67 269z" />
    <glyph glyph-name="less" unicode="&#x3c;" horiz-adv-x="630" 
d="M565 113l-500 209v144l500 208v-153l-332 -128l332 -128v-152z" />
    <glyph glyph-name="equal" unicode="=" horiz-adv-x="530" 
d="M475 463h-420v134h420v-134zM475 191h-420v136h420v-136z" />
    <glyph glyph-name="greater" unicode="&#x3e;" horiz-adv-x="630" 
d="M565 322l-500 -209v152l332 128l-332 128v153l500 -208v-144z" />
    <glyph glyph-name="question" unicode="?" horiz-adv-x="580" 
d="M525 549q0 -40 -17 -77t-43 -60l-126 -114q-19 -17 -26 -33t-7 -40v-19h-140v49q0 35 15 68.5t38 54.5l131 119q35 32 35 75v12q0 70 -70 70h-60q-35 0 -51.5 -18t-18.5 -43l-140 36q2 31 16 60.5t38 51.5t56 35.5t70 13.5h120q37 0 70 -14t57.5 -38.5t38.5 -57.5t14 -70
v-61zM306 0h-140v136h140v-136z" />
    <glyph glyph-name="at" unicode="@" horiz-adv-x="1016" 
d="M963 297q-4 -21 -10 -44t-13.5 -45.5t-15.5 -43t-17 -35.5q-31 -55 -83 -92t-118 -37h-15q-48 0 -73.5 17t-37.5 45q-25 -29 -55.5 -45.5t-72.5 -16.5h-72q-30 0 -53.5 10.5t-39 29.5t-21.5 44.5t-1 55.5l15 81q5 30 20 55t36.5 44t49 29.5t57.5 10.5h141l9 54
q10 53 -43 53h-49q-28 0 -41.5 -11t-19.5 -33l-114 30l1 8q11 60 55.5 94.5t106.5 34.5h123q61 0 92.5 -39t21.5 -99l-45 -258q-8 -46 1.5 -65.5t48.5 -19.5q20 0 35.5 8t28 20.5t22 28.5t17.5 33q10 21 17 48t12 50q14 80 -1 150.5t-53.5 123t-98 83t-134.5 30.5
t-145.5 -30.5t-127.5 -83t-96.5 -123t-53.5 -150.5t-0.5 -150t51 -122.5t97.5 -83t139 -30.5q50 0 93 11.5t78 28.5l39 -79q-48 -24 -104.5 -41t-122.5 -17q-96 0 -172.5 39t-126.5 106.5t-69.5 157t-1.5 190.5q18 102 68.5 189t122.5 150.5t159.5 99t179.5 35.5
q93 0 171 -37.5t130.5 -103t74.5 -154t4 -189.5zM562 237h-100q-53 0 -62 -53l-2 -8q-5 -28 6 -40t38 -12h47q28 0 42.5 12t19.5 40z" />
    <glyph glyph-name="A" unicode="A" 
d="M555 0h-145l-26 131h-158l-26 -131h-145l182 790h136zM358 267l-43 223q-1 4 -3 10t-7 6t-7 -6t-3 -10l-43 -223h106z" />
    <glyph glyph-name="B" unicode="B" 
d="M555 180q0 -38 -14 -70.5t-38.5 -57t-57.5 -38.5t-70 -14h-320v136h40v518h-40v136h320q37 0 70 -14t57.5 -38.5t38.5 -57.5t14 -70v-83q0 -33 -7 -55.5t-17.5 -37.5t-22 -24t-20.5 -14q10 -6 21.5 -15t21.5 -23.5t17 -36.5t7 -56v-85zM415 532v52q0 70 -70 70h-110v-192
h110q70 0 70 70zM415 206v50q0 70 -70 70h-110v-190h110q34 0 52 18.5t18 51.5z" />
    <glyph glyph-name="C" unicode="C" 
d="M555 163q-3 -32 -17.5 -61.5t-38 -52t-55.5 -36t-69 -13.5h-140q-38 0 -70.5 14t-57 38.5t-38.5 57t-14 70.5v430q0 37 14 70t38.5 57.5t57 38.5t70.5 14h140q37 0 69 -13.5t55.5 -36t38 -52.5t17.5 -63l-140 -35q0 26 -18 45t-52 19h-80q-70 0 -70 -70v-378
q0 -70 70 -70h80q33 0 51.5 16.5t18.5 45.5z" />
    <glyph glyph-name="D" unicode="D" 
d="M555 180q0 -38 -14 -70.5t-38.5 -57t-57.5 -38.5t-70 -14h-320v136h40v518h-40v136h320q37 0 70 -14t57.5 -38.5t38.5 -57.5t14 -70v-430zM415 206v378q0 70 -70 70h-110v-518h110q70 0 70 70z" />
    <glyph glyph-name="E" unicode="E" 
d="M555 0h-500v790h500v-136h-360v-191h260v-136h-260v-191h360v-136z" />
    <glyph glyph-name="F" unicode="F" 
d="M555 654h-360v-191h260v-136h-260v-327h-140v790h500v-136z" />
    <glyph glyph-name="G" unicode="G" 
d="M555 180q0 -38 -14 -70.5t-38.5 -57t-57.5 -38.5t-70 -14h-140q-38 0 -70.5 14t-57 38.5t-38.5 57t-14 70.5v430q0 37 14 70t38.5 57.5t57 38.5t70.5 14h140q37 0 68 -12.5t54.5 -34.5t38 -51.5t19.5 -63.5l-140 -35q0 24 -18 42.5t-52 18.5h-80q-70 0 -70 -70v-378
q0 -70 70 -70h80q70 0 70 70v75h-100v136h240v-237z" />
    <glyph glyph-name="H" unicode="H" 
d="M555 0h-140v327h-220v-327h-140v790h140v-327h220v327h140v-790z" />
    <glyph glyph-name="I" unicode="I" horiz-adv-x="250" 
d="M195 0h-140v790h140v-790z" />
    <glyph glyph-name="J" unicode="J" 
d="M555 180q0 -38 -14 -70.5t-38.5 -57t-57.5 -38.5t-70 -14h-140q-36 0 -67.5 12.5t-55 34.5t-38.5 51.5t-19 64.5l140 35q0 -26 18 -44t52 -18h80q70 0 70 70v584h140v-610z" />
    <glyph glyph-name="K" unicode="K" 
d="M555 0h-140v29q0 14 -3.5 28.5t-11.5 28.5l-143 243l-62 -79v-250h-140v790h140v-338l195 243q16 20 20.5 33.5t4.5 34.5v27h140v-43q0 -29 -9.5 -55.5t-33.5 -56.5l-158 -196l174 -296q17 -28 22 -47t5 -43v-53z" />
    <glyph glyph-name="L" unicode="L" 
d="M555 0h-500v790h140v-654h360v-136z" />
    <glyph glyph-name="M" unicode="M" 
d="M555 0h-140v376q0 2 -1 7.5t-5 5.5q-3 0 -5.5 -4.5t-3.5 -6.5l-84 -227q-2 -4 -4 -7.5t-7 -3.5t-7 3.5t-4 7.5l-84 226l-3 6t-6 4t-5 -4.5t-1 -7.5v-375h-140v790h130l111 -310q1 -2 3.5 -7.5t5.5 -5.5t5.5 5.5t3.5 7.5l111 310h130v-790z" />
    <glyph glyph-name="N" unicode="N" 
d="M555 0h-131l-229 460v-460h-140v790h132l228 -462v462h140v-790z" />
    <glyph glyph-name="O" unicode="O" 
d="M555 180q0 -38 -14 -70.5t-38.5 -57t-57.5 -38.5t-70 -14h-140q-38 0 -70.5 14t-57 38t-38.5 57t-14 71v430q0 37 14 70t38.5 57.5t57 38.5t70.5 14h140q37 0 70 -14t57.5 -38.5t38.5 -57.5t14 -70v-430zM415 206v378q0 70 -70 70h-80q-70 0 -70 -70v-378q0 -70 70 -70
h80q34 0 52 18.5t18 51.5z" />
    <glyph glyph-name="P" unicode="P" 
d="M555 507q0 -38 -14 -70.5t-38.5 -57t-57.5 -38.5t-70 -14h-180v-327h-140v790h320q37 0 70 -14t57.5 -38.5t38.5 -57.5t14 -70v-103zM415 533v51q0 70 -70 70h-150v-191h150q70 0 70 70z" />
    <glyph glyph-name="Q" unicode="Q" 
d="M555 -20h-139l-16 23q-11 -3 -27 -3h-138q-38 0 -70.5 14t-57 38.5t-38.5 57t-14 70.5v430q0 37 14 70t38 57.5t57 38.5t71 14h140q37 0 70 -14t57.5 -38t38.5 -57t14 -71v-430q0 -45 -16 -76.5t-36 -48.5zM415 200v384q0 70 -70 70h-80q-70 0 -70 -70v-378q0 -70 70 -70
h44l-83 121h140l40 -60q9 -12 9 3z" />
    <glyph glyph-name="R" unicode="R" 
d="M555 0h-150l-120 327h-90v-327h-140v790h320q37 0 70 -14t57.5 -38.5t38.5 -57.5t14 -70v-102q0 -75 -32.5 -120t-89.5 -59zM415 533v51q0 34 -18.5 52t-51.5 18h-150v-191h150q70 0 70 70z" />
    <glyph glyph-name="S" unicode="S" 
d="M555 180q0 -38 -14 -70.5t-38.5 -57t-57.5 -38.5t-70 -14h-140q-38 0 -69 13t-54.5 35.5t-38 52.5t-18.5 65l140 35q2 -31 19 -48t51 -17h80q70 0 70 70v27q0 26 -9.5 39.5t-35.5 24.5l-182 73q-26 10 -49.5 25.5t-42.5 38t-30 51.5t-11 66v59q0 37 14 70t38.5 57.5
t57 38.5t70.5 14h140q38 0 69.5 -13.5t55 -36.5t38 -52.5t17.5 -61.5l-140 -35q-2 29 -19 46t-51 17h-80q-70 0 -70 -70v-10q0 -34 7.5 -50.5t33.5 -26.5l188 -75q58 -23 94.5 -63t36.5 -102v-77z" />
    <glyph glyph-name="T" unicode="T" 
d="M555 654h-180v-654h-140v654h-180v136h500v-136z" />
    <glyph glyph-name="U" unicode="U" 
d="M555 180q0 -38 -14 -70.5t-38.5 -57t-57.5 -38.5t-70 -14h-140q-38 0 -71 14t-57 38.5t-38 57t-14 70.5v610h140v-584q0 -70 70 -70h80q70 0 70 70v584h140v-610z" />
    <glyph glyph-name="V" unicode="V" 
d="M555 790l-183 -790h-134l-183 790h145l95 -447q1 -3 3 -9.5t7 -6.5t7 6.5t3 9.5l95 447h145z" />
    <glyph glyph-name="W" unicode="W" horiz-adv-x="611" 
d="M556 790l-44 -790h-132l-64 237q-1 4 -3 7.5t-7 3.5t-7 -3.5t-3 -7.5l-65 -237h-131l-45 790h141l22 -385q0 -3 1 -7t5 -4t6 4t3 7l62 229q1 4 3.5 7.5t7.5 3.5t7.5 -3.5t3.5 -7.5l61 -229q1 -3 3 -7t6 -4t5 4t1 7l22 385h141z" />
    <glyph glyph-name="X" unicode="X" 
d="M555 0h-140v29q0 15 -3 30.5t-11 29.5l-96 170l-94 -168q-8 -15 -12 -31t-4 -31v-29h-140v46q0 26 6 52t19 48l147 249l-147 250q-13 22 -19 48t-6 52v45h140v-28q0 -15 4 -31t12 -31l94 -166l96 168q8 14 11 29.5t3 30.5v28h140v-45q0 -26 -5.5 -52t-18.5 -48l-147 -249
l147 -250q13 -22 18.5 -48t5.5 -52v-46z" />
    <glyph glyph-name="Y" unicode="Y" 
d="M555 742q0 -50 -25 -106l-155 -345v-291h-140v291l-155 345q-14 29 -19.5 55t-5.5 52v47h140v-31q0 -15 3 -32.5t10 -32.5l97 -226l97 226q7 16 10 33t3 32v31h140v-48z" />
    <glyph glyph-name="Z" unicode="Z" 
d="M555 0h-500v130l336 525h-336v136l500 -1v-130l-335 -524h335v-136z" />
    <glyph glyph-name="bracketleft" unicode="[" horiz-adv-x="268" 
d="M288 -186h-233v1162h233v-120h-103v-922h103v-120z" />
    <glyph glyph-name="backslash" unicode="\" horiz-adv-x="397" 
d="M397 -70h-115l-282 930h115z" />
    <glyph glyph-name="bracketright" unicode="]" horiz-adv-x="268" 
d="M213 -186h-233v120h103v922h-103v120h233v-1162z" />
    <glyph glyph-name="asciicircum" unicode="^" horiz-adv-x="613" 
d="M558 361h-143l-113 200l-106 -200h-141l199 377h104z" />
    <glyph glyph-name="underscore" unicode="_" 
d="M610 -200h-610v110h610v-110z" />
    <glyph glyph-name="grave" unicode="`" 
d="M302 681l-53 -52l-153 123l79 84z" />
    <glyph glyph-name="a" unicode="a" horiz-adv-x="498" 
d="M448 0h-105l-15 35q-10 -15 -30.5 -25t-44.5 -10h-73q-30 0 -55.5 10.5t-44.5 29.5t-29.5 45t-10.5 56v80q0 30 10.5 56t29.5 44.5t44.5 29.5t55.5 11h138v51q0 51 -50 51h-49q-27 0 -38 -11.5t-13 -33.5l-123 31v9q0 61 39.5 96t101.5 35h122q30 0 55.5 -10.5t44.5 -29
t29.5 -44.5t10.5 -56v-450zM318 176v59h-98q-26 0 -38 -12t-12 -39v-8q0 -50 50 -50h48q50 0 50 50z" />
    <glyph glyph-name="b" unicode="b" horiz-adv-x="523" 
d="M473 140q0 -30 -10.5 -56t-29 -44.5t-44 -29t-55.5 -10.5h-79q-26 0 -49 7.5t-38 26.5l-13 -34h-105v790h130v-236q15 19 37 27.5t48 8.5h69q30 0 55.5 -10.5t44 -29t29 -44.5t10.5 -56v-310zM343 177v236q0 51 -50 51h-63q-50 0 -50 -51v-236q0 -51 50 -51h63
q50 0 50 51z" />
    <glyph glyph-name="c" unicode="c" horiz-adv-x="515" 
d="M465 138q0 -30 -11 -55.5t-29.5 -43.5t-43.5 -28.5t-55 -10.5h-137q-30 0 -55.5 10.5t-44 29t-29 44.5t-10.5 56v310q0 30 10.5 56t29 44.5t44 29t55.5 10.5h137q30 0 55.5 -10.5t44 -28.5t29 -43.5t10.5 -55.5l-130 -33q-3 45 -50 45h-55q-50 0 -50 -51v-236
q0 -51 50 -51h55q47 0 50 45z" />
    <glyph glyph-name="d" unicode="d" horiz-adv-x="523" 
d="M473 0h-104l-15 35q-27 -35 -84 -35h-81q-30 0 -55.5 10.5t-44 29t-29 44.5t-10.5 56v310q0 30 10.5 56t29 44.5t44 29t55.5 10.5h69q26 0 48 -8.5t37 -27.5v236h130v-790zM343 177v236q0 51 -50 51h-63q-50 0 -50 -51v-236q0 -51 50 -51h63q50 0 50 51z" />
    <glyph glyph-name="e" unicode="e" horiz-adv-x="508" 
d="M458 228h-278v-51q0 -51 51 -51h49q26 0 37 11.5t13 33.5l123 -31v-9q0 -61 -39.5 -96t-100.5 -35h-122q-30 0 -56 10.5t-45 29t-29.5 44.5t-10.5 56v310q0 30 10.5 55.5t29 44.5t44 29.5t55.5 10.5h129q30 0 56 -10.5t44.5 -29.5t29 -45t10.5 -56v-221zM328 414
q1 50 -50 50h-47q-27 0 -39 -12t-12 -38v-59h148v59z" />
    <glyph glyph-name="f" unicode="f" horiz-adv-x="348" 
d="M333 663h-88q-50 0 -50 -50v-28h128v-126h-128v-459h-130v459h-50v126h50v63q0 30 10.5 56t29.5 45t44.5 29.5t55.5 10.5h128v-126z" />
    <glyph glyph-name="g" unicode="g" horiz-adv-x="523" 
d="M473 -61q0 -30 -10.5 -55.5t-29 -44t-44.5 -29t-56 -10.5h-128q-61 0 -100.5 35t-39.5 96v9l123 31q2 -22 13 -33.5t38 -11.5h54q50 0 50 51v87q-12 -15 -37 -25.5t-48 -10.5h-69q-30 0 -55.5 10.5t-44 29t-29 44.5t-10.5 56v283q0 30 10.5 55.5t29 44t44 29t55.5 10.5
h79q26 0 49.5 -9.5t35.5 -23.5l15 33h105v-651zM343 205v208q0 51 -50 51h-63q-50 0 -50 -51v-208q0 -50 50 -50h63q50 0 50 50z" />
    <glyph glyph-name="h" unicode="h" horiz-adv-x="523" 
d="M473 0h-130v413q0 51 -50 51h-63q-50 0 -50 -51v-413h-130v790h130v-236q12 15 37 25.5t48 10.5h68q30 0 55.5 -10.5t44.5 -29.5t29.5 -45t10.5 -56v-449z" />
    <glyph glyph-name="i" unicode="i" horiz-adv-x="230" 
d="M180 663h-130v126h130v-126zM180 0h-130v590h130v-590z" />
    <glyph glyph-name="j" unicode="j" horiz-adv-x="230" 
d="M180 663h-130v126h130v-126zM180 -74q0 -61 -35 -93.5t-95 -32.5h-90v126h40q50 0 50 50v614h130v-664z" />
    <glyph glyph-name="k" unicode="k" horiz-adv-x="523" 
d="M473 0l-132 -1v23q0 23 -13 43l-115 185l-33 -38v-212h-130v790h130v-418l138 150q14 14 18.5 23t4.5 25v20h132v-33q0 -22 -8.5 -41.5t-28.5 -42.5l-127 -137l140 -229q14 -22 19 -37t5 -33v-37z" />
    <glyph glyph-name="l" unicode="l" horiz-adv-x="230" 
d="M180 0h-130v790h130v-790z" />
    <glyph glyph-name="m" unicode="m" horiz-adv-x="737" 
d="M687 0h-130v413q0 51 -50 51h-23q-50 0 -50 -51v-413h-131v413q0 51 -50 51h-23q-50 0 -50 -51v-413h-130v590h130v-36q12 15 37 25.5t48 10.5h34q38 0 65 -15t42 -38q15 23 42.5 38t65.5 15h34q30 0 55.5 -10.5t44 -29.5t29 -45t10.5 -56v-449z" />
    <glyph glyph-name="n" unicode="n" horiz-adv-x="503" 
d="M453 0h-130v413q0 51 -50 51h-43q-50 0 -50 -51v-413h-130v590h130v-36q12 15 37 25.5t48 10.5h49q30 0 55.5 -10.5t44 -29.5t29 -45t10.5 -56v-449z" />
    <glyph glyph-name="o" unicode="o" horiz-adv-x="515" 
d="M465 140q0 -30 -10.5 -56t-29.5 -44.5t-44.5 -29t-55.5 -10.5h-135q-30 0 -55.5 10.5t-44.5 29t-29.5 44.5t-10.5 56v310q0 30 10.5 56t29.5 44.5t44.5 29t55.5 10.5h135q30 0 55.5 -10.5t44.5 -29.5t29.5 -45t10.5 -56v-309zM335 177v236q0 51 -50 51h-55q-50 0 -50 -51
v-236q0 -51 50 -51h55q50 0 50 51z" />
    <glyph glyph-name="p" unicode="p" horiz-adv-x="523" 
d="M473 140q0 -30 -10.5 -56t-29 -44.5t-44 -29t-55.5 -10.5h-69q-26 0 -48 8.5t-37 27.5v-236h-130v790h104l15 -35q15 19 37.5 27t48.5 8h79q30 0 55.5 -10.5t44 -29t29 -44.5t10.5 -56v-310zM343 177v236q0 51 -50 51h-63q-50 0 -50 -51v-236q0 -50 50 -50h63q50 0 50 50
z" />
    <glyph glyph-name="q" unicode="q" horiz-adv-x="523" 
d="M473 -200h-130v236q-15 -19 -37 -27.5t-48 -8.5h-69q-30 0 -55.5 10.5t-44 29t-29 44.5t-10.5 56v310q0 30 10.5 56t29 44.5t44 29t55.5 10.5h79q26 0 48.5 -8t37.5 -27l15 35h104v-790zM343 177v236q0 51 -50 51h-63q-50 0 -50 -51v-236q0 -50 50 -50h63q50 0 50 50z
" />
    <glyph glyph-name="r" unicode="r" horiz-adv-x="361" 
d="M351 576l-30 -122q-10 6 -19 8t-30 2h-42q-50 -1 -50 -51v-413h-130v590h130v-52q12 30 37.5 42t45.5 12h32q15 0 30.5 -4t25.5 -12z" />
    <glyph glyph-name="s" unicode="s" horiz-adv-x="515" 
d="M465 140q0 -30 -10.5 -56t-29 -44.5t-44 -29t-55.5 -10.5h-136q-30 0 -55.5 10.5t-44 28.5t-29.5 43.5t-11 55.5l130 33q2 -23 13.5 -34t37.5 -11h54q50 0 50 46v4q0 11 -7 19.5t-25 15.5l-147 54q-18 7 -37 19.5t-34.5 30.5t-25 42t-9.5 53v40q0 30 10.5 55.5t29 44.5
t44 29.5t55.5 10.5h137q30 0 55.5 -10.5t44 -28.5t29 -43.5t10.5 -55.5l-130 -33q-3 45 -50 45h-55q-26 0 -38 -11t-12 -30v-6q0 -14 5.5 -22.5t22.5 -14.5l155 -57q20 -7 38.5 -19t32.5 -30t22.5 -41.5t8.5 -53.5v-39z" />
    <glyph glyph-name="t" unicode="t" horiz-adv-x="358" 
d="M333 0h-128q-30 0 -55.5 10.5t-44.5 29.5t-29.5 45t-10.5 56v318h-50v126h50v121l130 33v-154h128v-126h-128v-283q0 -50 50 -50h88v-126z" />
    <glyph glyph-name="u" unicode="u" horiz-adv-x="503" 
d="M453 0h-130v36q-12 -15 -37 -26t-48 -11h-49q-30 0 -55.5 11t-44 30t-29 45t-10.5 56v449h130v-414q0 -50 50 -50h43q50 0 50 50v414h130v-590z" />
    <glyph glyph-name="v" unicode="v" horiz-adv-x="500" 
d="M480 590l-165 -590h-129l-166 590h133l88 -331q1 -3 3 -7.5t6 -4.5q5 0 6.5 4.5l2.5 7.5l88 331h133z" />
    <glyph glyph-name="w" unicode="w" horiz-adv-x="575" 
d="M555 590l-95 -590h-109l-54 182q-4 11 -9 11t-9 -11l-54 -182h-109l-96 590h133l43 -301q1 -3 3 -7.5t6 -4.5q5 0 6.5 4.5l2.5 7.5l63 188q2 8 5 10t6 2t6 -2t5 -10l62 -188q1 -3 3 -7.5t6 -4.5q5 0 7 4.5t2 7.5l43 301h133z" />
    <glyph glyph-name="x" unicode="x" horiz-adv-x="529" 
d="M479 0h-130v34q0 11 -2.5 23.5t-8.5 22.5l-74 112l-71 -112q-7 -11 -10 -24t-3 -24v-32h-130v39q0 43 22 77l121 180l-121 181q-22 34 -22 76v37h130v-31q0 -10 3 -23t10 -24l71 -111l74 112q6 9 8.5 21.5t2.5 23.5v32h130v-37q0 -20 -5 -39.5t-16 -36.5l-122 -180
l122 -181q11 -17 16 -37t5 -40v-39z" />
    <glyph glyph-name="y" unicode="y" horiz-adv-x="500" 
d="M480 590l-186 -661q-9 -34 -26 -58.5t-39 -40t-48 -23t-54 -7.5h-54v126h40q52 0 67 52l6 22l-166 590h133l87 -341q1 -3 3 -7.5t6 -4.5q5 0 6.5 4.5l2.5 7.5l89 341h133z" />
    <glyph glyph-name="z" unicode="z" horiz-adv-x="512" 
d="M462 0h-412v100l247 364h-247v126h412v-100l-246 -364h246v-126z" />
    <glyph glyph-name="braceleft" unicode="{" horiz-adv-x="302" 
d="M322 -186h-119q-54 0 -83 29.5t-29 82.5v350q0 35 -11.5 57t-45.5 36q-19 8 -19 20.5t18 19.5q32 13 45 35.5t13 58.5v362q0 53 29 82.5t83 29.5h119v-116h-69q-38 -2 -38 -39v-348q0 -32 -12.5 -47t-35.5 -25q-8 -3 -8 -7t8 -7q23 -10 35.5 -25t12.5 -47v-347
q0 -39 38 -39h69v-116z" />
    <glyph glyph-name="bar" unicode="|" horiz-adv-x="440" 
d="M275 -70h-110v930h110v-930z" />
    <glyph glyph-name="braceright" unicode="}" horiz-adv-x="302" 
d="M269 409q19 -7 19 -19.5t-20 -20.5q-34 -14 -45.5 -36t-11.5 -57v-350q0 -53 -29 -82.5t-83 -29.5h-119v116h69q39 0 39 39v347q0 32 12 47t35 25q17 7 0 14q-23 10 -35 25t-12 47v348q0 37 -39 39h-69v116h119q54 0 83 -29.5t29 -82.5v-362q0 -36 13 -58.5t45 -35.5z
" />
    <glyph glyph-name="asciitilde" unicode="~" horiz-adv-x="587" 
d="M537 419l-1 -30q-2 -82 -37.5 -119.5t-112.5 -37.5q-26 0 -50.5 9t-47.5 19.5l-44 19.5t-39 9q-48 1 -49 -55h-106l1 28q2 81 37.5 119t111.5 38q28 0 51 -9t44.5 -20t42.5 -20t45 -9q26 0 36 16.5t10 41.5h108z" />
    <glyph glyph-name="DEL" horiz-adv-x="1000" 
 />
    <glyph glyph-name="Adieresis" unicode="&#xc4;" 
d="M462 840h-121v115h121v-115zM266 840h-119v115h119v-115zM555 0h-145l-26 131h-158l-26 -131h-145l182 790h136zM358 267l-43 223q-1 4 -3 10t-7 6t-7 -6t-3 -10l-43 -223h106z" />
    <glyph glyph-name="Aring" unicode="&#xc5;" 
d="M418 947q0 -23 -8.5 -44.5t-23.5 -37.5t-35.5 -25.5t-44.5 -9.5t-45 9.5t-36 25.5t-23.5 37t-8.5 45t8.5 45.5t23.5 37.5t36 25.5t45 9.5t44.5 -9.5t35.5 -26t23.5 -37.5t8.5 -45zM555 0h-145l-26 131h-158l-26 -131h-145l182 790h136zM345 948q0 17 -11.5 29.5
t-28.5 12.5t-28.5 -12.5t-11.5 -29.5t11.5 -29.5t28.5 -12.5t28.5 12.5t11.5 29.5zM358 267l-43 223q-1 4 -3 10t-7 6t-7 -6t-3 -10l-43 -223h106z" />
    <glyph glyph-name="Ccedilla" unicode="&#xc7;" 
d="M555 163q-3 -32 -17.5 -61.5t-38 -52t-55.5 -36t-69 -13.5h-25l-7 -35q17 0 30.5 -3.5t23.5 -12.5t15 -25t5 -42q0 -48 -22.5 -65t-73.5 -17h-86v55h32q10 0 19 1q36 0 36 32t-38 32h-35l14 80h-28q-38 0 -70.5 14t-57 38.5t-38.5 57t-14 70.5v430q0 37 14 70t38.5 57.5
t57 38.5t70.5 14h140q37 0 69 -13.5t55.5 -36t38 -52.5t17.5 -63l-140 -35q0 26 -18 45t-52 19h-80q-70 0 -70 -70v-378q0 -70 70 -70h80q33 0 51.5 16.5t18.5 45.5z" />
    <glyph glyph-name="Eacute" unicode="&#xc9;" 
d="M450 952l-153 -123l-52 52l127 155zM555 0h-500v790h500v-136h-360v-191h260v-136h-260v-191h360v-136z" />
    <glyph glyph-name="Ntilde" unicode="&#xd1;" 
d="M469 960v-20q-2 -54 -25.5 -79t-74.5 -25q-17 0 -33.5 6t-32 13l-29.5 13t-26 6q-32 0 -32 -37h-71v19q2 54 25.5 79.5t74.5 24.5q18 0 33.5 -6t30 -13t28.5 -13t30 -6q17 0 24 11t7 27h71zM555 0h-131l-229 460v-460h-140v790h132l228 -462v462h140v-790z" />
    <glyph glyph-name="Odieresis" unicode="&#xd6;" 
d="M464 837h-121v115h121v-115zM268 837h-119v115h119v-115zM555 180q0 -38 -14 -70.5t-38.5 -57t-57.5 -38.5t-70 -14h-140q-38 0 -70.5 14t-57 38t-38.5 57t-14 71v430q0 37 14 70t38.5 57.5t57 38.5t70.5 14h140q37 0 70 -14t57.5 -38.5t38.5 -57.5t14 -70v-430zM415 206
v378q0 70 -70 70h-80q-70 0 -70 -70v-378q0 -70 70 -70h80q34 0 52 18.5t18 51.5z" />
    <glyph glyph-name="Udieresis" unicode="&#xdc;" 
d="M461 837h-121v115h121v-115zM265 837h-120v115h120v-115zM555 180q0 -38 -14 -70.5t-38.5 -57t-57.5 -38.5t-70 -14h-140q-38 0 -71 14t-57 38.5t-38 57t-14 70.5v610h140v-584q0 -70 70 -70h80q70 0 70 70v584h140v-610z" />
    <glyph glyph-name="aacute" unicode="&#xe1;" horiz-adv-x="498" 
d="M381 752l-153 -123l-52 52l127 155zM448 0h-105l-15 35q-10 -15 -30.5 -25t-44.5 -10h-73q-30 0 -55.5 10.5t-44.5 29.5t-29.5 45t-10.5 56v80q0 30 10.5 56t29.5 44.5t44.5 29.5t55.5 11h138v51q0 51 -50 51h-49q-27 0 -38 -11.5t-13 -33.5l-123 31v9q0 61 39.5 96
t101.5 35h122q30 0 55.5 -10.5t44.5 -29t29.5 -44.5t10.5 -56v-450zM318 176v59h-98q-26 0 -38 -12t-12 -39v-8q0 -50 50 -50h48q50 0 50 50z" />
    <glyph glyph-name="agrave" unicode="&#xe0;" horiz-adv-x="498" 
d="M334 681l-53 -52l-153 123l79 84zM448 0h-105l-15 35q-10 -15 -30.5 -25t-44.5 -10h-73q-30 0 -55.5 10.5t-44.5 29.5t-29.5 45t-10.5 56v80q0 30 10.5 56t29.5 44.5t44.5 29.5t55.5 11h138v51q0 51 -50 51h-49q-27 0 -38 -11.5t-13 -33.5l-123 31v9q0 61 39.5 96
t101.5 35h122q30 0 55.5 -10.5t44.5 -29t29.5 -44.5t10.5 -56v-450zM318 176v59h-98q-26 0 -38 -12t-12 -39v-8q0 -50 50 -50h48q50 0 50 50z" />
    <glyph glyph-name="acircumflex" unicode="&#xe2;" horiz-adv-x="498" 
d="M408 655l-102 -25l-61 66l-60 -67l-102 25l113 126h99zM448 0h-105l-15 35q-10 -15 -30.5 -25t-44.5 -10h-73q-30 0 -55.5 10.5t-44.5 29.5t-29.5 45t-10.5 56v80q0 30 10.5 56t29.5 44.5t44.5 29.5t55.5 11h138v51q0 51 -50 51h-49q-27 0 -38 -11.5t-13 -33.5l-123 31v9
q0 61 39.5 96t101.5 35h122q30 0 55.5 -10.5t44.5 -29t29.5 -44.5t10.5 -56v-450zM318 176v59h-98q-26 0 -38 -12t-12 -39v-8q0 -50 50 -50h48q50 0 50 50z" />
    <glyph glyph-name="adieresis" unicode="&#xe4;" horiz-adv-x="498" 
d="M410 640h-121v114h121v-114zM214 640h-120v114h120v-114zM448 0h-105l-15 35q-10 -15 -30.5 -25t-44.5 -10h-73q-30 0 -55.5 10.5t-44.5 29.5t-29.5 45t-10.5 56v80q0 30 10.5 56t29.5 44.5t44.5 29.5t55.5 11h138v51q0 51 -50 51h-49q-27 0 -38 -11.5t-13 -33.5l-123 31
v9q0 61 39.5 96t101.5 35h122q30 0 55.5 -10.5t44.5 -29t29.5 -44.5t10.5 -56v-450zM318 176v59h-98q-26 0 -38 -12t-12 -39v-8q0 -50 50 -50h48q50 0 50 50z" />
    <glyph glyph-name="atilde" unicode="&#xe3;" horiz-adv-x="498" 
d="M412 763l-1 -20q-1 -54 -24.5 -79.5t-74.5 -25.5q-18 0 -34.5 6t-32 13l-29 13.5t-25.5 6.5q-33 0 -33 -37h-71l1 19q2 54 25 79t74 25q19 0 34.5 -6t30 -13t28.5 -13t30 -6q17 0 23.5 10.5t6.5 27.5h72zM448 0h-105l-15 35q-10 -15 -30.5 -25t-44.5 -10h-73
q-30 0 -55.5 10.5t-44.5 29.5t-29.5 45t-10.5 56v80q0 30 10.5 56t29.5 44.5t44.5 29.5t55.5 11h138v51q0 51 -50 51h-49q-27 0 -38 -11.5t-13 -33.5l-123 31v9q0 61 39.5 96t101.5 35h122q30 0 55.5 -10.5t44.5 -29t29.5 -44.5t10.5 -56v-450zM318 176v59h-98
q-26 0 -38 -12t-12 -39v-8q0 -50 50 -50h48q50 0 50 50z" />
    <glyph glyph-name="aring" unicode="&#xe5;" horiz-adv-x="498" 
d="M366 747q0 -24 -8.5 -45t-23.5 -37t-35.5 -25.5t-44.5 -9.5t-45 9.5t-36 25.5t-23.5 37t-8.5 45t8.5 45t23.5 37.5t36 26t45 9.5t44.5 -9.5t35.5 -26t23.5 -37.5t8.5 -45zM448 0h-105l-15 35q-10 -15 -30.5 -25t-44.5 -10h-73q-30 0 -55.5 10.5t-44.5 29.5t-29.5 45
t-10.5 56v80q0 30 10.5 56t29.5 44.5t44.5 29.5t55.5 11h138v51q0 51 -50 51h-49q-27 0 -38 -11.5t-13 -33.5l-123 31v9q0 61 39.5 96t101.5 35h122q30 0 55.5 -10.5t44.5 -29t29.5 -44.5t10.5 -56v-450zM293 748q0 17 -11.5 29t-28.5 12t-28.5 -12t-11.5 -29t11.5 -29.5
t28.5 -12.5t28.5 12.5t11.5 29.5zM318 176v59h-98q-26 0 -38 -12t-12 -39v-8q0 -50 50 -50h48q50 0 50 50z" />
    <glyph glyph-name="ccedilla" unicode="&#xe7;" horiz-adv-x="515" 
d="M465 138q0 -30 -11 -55.5t-29.5 -43.5t-43.5 -28.5t-55 -10.5h-36l-7 -35q17 0 30.5 -3.5t23.5 -12.5t15 -25t5 -42q0 -48 -22.5 -65t-73.5 -17h-86v55h32q10 0 19 1q36 0 36 32t-38 32h-35l14 80h-14q-30 0 -55.5 10.5t-44 29t-29 44.5t-10.5 56v310q0 30 10.5 56
t29 44.5t44 29t55.5 10.5h137q30 0 55.5 -10.5t44 -28.5t29 -43.5t10.5 -55.5l-130 -33q-3 45 -50 45h-55q-50 0 -50 -51v-236q0 -51 50 -51h55q47 0 50 45z" />
    <glyph glyph-name="eacute" unicode="&#xe9;" horiz-adv-x="508" 
d="M388 752l-153 -123l-53 52l128 155zM458 228h-278v-51q0 -51 51 -51h49q26 0 37 11.5t13 33.5l123 -31v-9q0 -61 -39.5 -96t-100.5 -35h-122q-30 0 -56 10.5t-45 29t-29.5 44.5t-10.5 56v310q0 30 10.5 55.5t29 44.5t44 29.5t55.5 10.5h129q30 0 56 -10.5t44.5 -29.5
t29 -45t10.5 -56v-221zM328 414q1 50 -50 50h-47q-27 0 -39 -12t-12 -38v-59h148v59z" />
    <glyph glyph-name="egrave" unicode="&#xe8;" horiz-adv-x="508" 
d="M350 681l-53 -52l-153 123l79 84zM458 228h-278v-51q0 -51 51 -51h49q26 0 37 11.5t13 33.5l123 -31v-9q0 -61 -39.5 -96t-100.5 -35h-122q-30 0 -56 10.5t-45 29t-29.5 44.5t-10.5 56v310q0 30 10.5 55.5t29 44.5t44 29.5t55.5 10.5h129q30 0 56 -10.5t44.5 -29.5
t29 -45t10.5 -56v-221zM328 414q1 50 -50 50h-47q-27 0 -39 -12t-12 -38v-59h148v59z" />
    <glyph glyph-name="ecircumflex" unicode="&#xea;" horiz-adv-x="508" 
d="M419 655l-102 -25l-60 66l-61 -67l-102 25l114 126h98zM458 228h-278v-51q0 -51 51 -51h49q26 0 37 11.5t13 33.5l123 -31v-9q0 -61 -39.5 -96t-100.5 -35h-122q-30 0 -56 10.5t-45 29t-29.5 44.5t-10.5 56v310q0 30 10.5 55.5t29 44.5t44 29.5t55.5 10.5h129
q30 0 56 -10.5t44.5 -29.5t29 -45t10.5 -56v-221zM328 414q1 50 -50 50h-47q-27 0 -39 -12t-12 -38v-59h148v59z" />
    <glyph glyph-name="edieresis" unicode="&#xeb;" horiz-adv-x="508" 
d="M415 638h-121v114h121v-114zM219 638h-120v114h120v-114zM458 228h-278v-51q0 -51 51 -51h49q26 0 37 11.5t13 33.5l123 -31v-9q0 -61 -39.5 -96t-100.5 -35h-122q-30 0 -56 10.5t-45 29t-29.5 44.5t-10.5 56v310q0 30 10.5 55.5t29 44.5t44 29.5t55.5 10.5h129
q30 0 56 -10.5t44.5 -29.5t29 -45t10.5 -56v-221zM328 414q1 50 -50 50h-47q-27 0 -39 -12t-12 -38v-59h148v59z" />
    <glyph glyph-name="iacute" unicode="&#xed;" horiz-adv-x="230" 
d="M222 752l-153 -123l-53 52l128 155zM180 0h-130v590h130v-590z" />
    <glyph glyph-name="igrave" unicode="&#xec;" horiz-adv-x="230" 
d="M211 681l-53 -52l-153 123l79 84zM180 0h-130v590h130v-590z" />
    <glyph glyph-name="icircumflex" unicode="&#xee;" horiz-adv-x="230" 
d="M267 654l-96 -25l-56 66l-57 -67l-96 25l107 127h92zM180 0h-130v590h130v-590z" />
    <glyph glyph-name="idieresis" unicode="&#xef;" horiz-adv-x="230" 
d="M273 640h-121v114h121v-114zM77 640h-119v114h119v-114zM180 0h-130v590h130v-590z" />
    <glyph glyph-name="ntilde" unicode="&#xf1;" horiz-adv-x="503" 
d="M421 763l-1 -20q-2 -54 -25.5 -79.5t-74.5 -25.5q-17 0 -33.5 6t-32 13l-29.5 13.5t-26 6.5q-32 0 -32 -37h-71v19q2 54 25.5 79t74.5 25q18 0 33.5 -6t30 -13t28.5 -13t30 -6q17 0 24 10.5t7 27.5h72zM453 0h-130v413q0 51 -50 51h-43q-50 0 -50 -51v-413h-130v590h130
v-36q12 15 37 25.5t48 10.5h49q30 0 55.5 -10.5t44 -29.5t29 -45t10.5 -56v-449z" />
    <glyph glyph-name="oacute" unicode="&#xf3;" horiz-adv-x="515" 
d="M371 752l-153 -123l-53 52l127 155zM465 140q0 -30 -10.5 -56t-29.5 -44.5t-44.5 -29t-55.5 -10.5h-135q-30 0 -55.5 10.5t-44.5 29t-29.5 44.5t-10.5 56v310q0 30 10.5 56t29.5 44.5t44.5 29t55.5 10.5h135q30 0 55.5 -10.5t44.5 -29.5t29.5 -45t10.5 -56v-309zM335 177
v236q0 51 -50 51h-55q-50 0 -50 -51v-236q0 -51 50 -51h55q50 0 50 51z" />
    <glyph glyph-name="ograve" unicode="&#xf2;" horiz-adv-x="515" 
d="M350 681l-52 -52l-153 123l78 84zM465 140q0 -30 -10.5 -56t-29.5 -44.5t-44.5 -29t-55.5 -10.5h-135q-30 0 -55.5 10.5t-44.5 29t-29.5 44.5t-10.5 56v310q0 30 10.5 56t29.5 44.5t44.5 29t55.5 10.5h135q30 0 55.5 -10.5t44.5 -29.5t29.5 -45t10.5 -56v-309zM335 177
v236q0 51 -50 51h-55q-50 0 -50 -51v-236q0 -51 50 -51h55q50 0 50 51z" />
    <glyph glyph-name="ocircumflex" unicode="&#xf4;" horiz-adv-x="515" 
d="M420 655l-102 -25l-61 66l-60 -67l-102 25l113 126h98zM465 140q0 -30 -10.5 -56t-29.5 -44.5t-44.5 -29t-55.5 -10.5h-135q-30 0 -55.5 10.5t-44.5 29t-29.5 44.5t-10.5 56v310q0 30 10.5 56t29.5 44.5t44.5 29t55.5 10.5h135q30 0 55.5 -10.5t44.5 -29.5t29.5 -45
t10.5 -56v-309zM335 177v236q0 51 -50 51h-55q-50 0 -50 -51v-236q0 -51 50 -51h55q50 0 50 51z" />
    <glyph glyph-name="odieresis" unicode="&#xf6;" horiz-adv-x="515" 
d="M415 640h-121v114h121v-114zM219 640h-119v114h119v-114zM465 140q0 -30 -10.5 -56t-29.5 -44.5t-44.5 -29t-55.5 -10.5h-135q-30 0 -55.5 10.5t-44.5 29t-29.5 44.5t-10.5 56v310q0 30 10.5 56t29.5 44.5t44.5 29t55.5 10.5h135q30 0 55.5 -10.5t44.5 -29.5t29.5 -45
t10.5 -56v-309zM335 177v236q0 51 -50 51h-55q-50 0 -50 -51v-236q0 -51 50 -51h55q50 0 50 51z" />
    <glyph glyph-name="otilde" unicode="&#xf5;" horiz-adv-x="515" 
d="M418 763v-20q-2 -54 -25.5 -79.5t-74.5 -25.5q-18 0 -34.5 6t-31.5 13l-29 13.5t-26 6.5q-32 0 -32 -37h-71v19q2 54 25.5 79t74.5 25q18 0 33.5 -6t30 -13t28.5 -13t30 -6q17 0 23.5 10.5t7.5 27.5h71zM465 140q0 -30 -10.5 -56t-29.5 -44.5t-44.5 -29t-55.5 -10.5h-135
q-30 0 -55.5 10.5t-44.5 29t-29.5 44.5t-10.5 56v310q0 30 10.5 56t29.5 44.5t44.5 29t55.5 10.5h135q30 0 55.5 -10.5t44.5 -29.5t29.5 -45t10.5 -56v-309zM335 177v236q0 51 -50 51h-55q-50 0 -50 -51v-236q0 -51 50 -51h55q50 0 50 51z" />
    <glyph glyph-name="uacute" unicode="&#xfa;" horiz-adv-x="503" 
d="M362 752l-153 -123l-52 52l127 155zM453 0h-130v36q-12 -15 -37 -26t-48 -11h-49q-30 0 -55.5 11t-44 30t-29 45t-10.5 56v449h130v-414q0 -50 50 -50h43q50 0 50 50v414h130v-590z" />
    <glyph glyph-name="ugrave" unicode="&#xf9;" horiz-adv-x="503" 
d="M351 681l-52 -52l-153 123l78 84zM453 0h-130v36q-12 -15 -37 -26t-48 -11h-49q-30 0 -55.5 11t-44 30t-29 45t-10.5 56v449h130v-414q0 -50 50 -50h43q50 0 50 50v414h130v-590z" />
    <glyph glyph-name="ucircumflex" unicode="&#xfb;" horiz-adv-x="503" 
d="M416 655l-102 -25l-60 66l-61 -67l-102 25l114 126h98zM453 0h-130v36q-12 -15 -37 -26t-48 -11h-49q-30 0 -55.5 11t-44 30t-29 45t-10.5 56v449h130v-414q0 -50 50 -50h43q50 0 50 50v414h130v-590z" />
    <glyph glyph-name="udieresis" unicode="&#xfc;" horiz-adv-x="503" 
d="M411 640h-120v114h120v-114zM216 640h-120v114h120v-114zM453 0h-130v36q-12 -15 -37 -26t-48 -11h-49q-30 0 -55.5 11t-44 30t-29 45t-10.5 56v449h130v-414q0 -50 50 -50h43q50 0 50 50v414h130v-590z" />
    <glyph glyph-name="dagger" unicode="&#x2020;" horiz-adv-x="338" 
d="M293 627h-90v-331h-68v331h-90v63h90v100h68v-100h90v-63z" />
    <glyph glyph-name="degree" unicode="&#xb0;" horiz-adv-x="401" 
d="M361 631q0 -33 -12.5 -62.5t-34.5 -51t-51.5 -34t-62.5 -12.5t-62.5 12.5t-51 34t-34 51t-12.5 62.5t12.5 62.5t34 51t51 34t62.5 12.5t62.5 -12.5t51.5 -34t34.5 -50.5t12.5 -63zM264 632q0 26 -18.5 45.5t-45.5 19.5t-46 -19.5t-19 -45.5q0 -27 19 -46t46 -19t45.5 19
t18.5 46z" />
    <glyph glyph-name="cent" unicode="&#xa2;" horiz-adv-x="515" 
d="M465 269q0 -30 -11 -55.5t-29.5 -43.5t-43.5 -28.5t-55 -10.5h-13v-70h-112v70h-12q-30 0 -55.5 10.5t-44 29t-29 44.5t-10.5 56v310q0 30 10.5 56t29 44.5t44 29t55.5 10.5h12v69h112v-69h13q30 0 55.5 -10.5t44 -28.5t29 -43.5t10.5 -55.5l-130 -33q-2 23 -13 34
t-36 11h-55q-51 0 -51 -51v-236q0 -51 51 -51h55q25 0 36 11t13 34z" />
    <glyph glyph-name="sterling" unicode="&#xa3;" horiz-adv-x="606" 
d="M551 626l-140 -35q-1 27 -18.5 45t-51.5 18h-36q-34 0 -52.5 -19t-18.5 -46q0 -26 5.5 -58.5t13.5 -67.5h127v-136h-102q11 -69 2.5 -113t-43.5 -66l-10.5 -7t-2.5 -5h317v-136h-486v136q23 6 42.5 18t31.5 33.5t15.5 55t-4.5 84.5h-85v136h60l-6.5 36t-6.5 40t-5 39
t-2 33q0 35 13.5 67.5t37.5 57t57 39.5t72 15h96q38 0 70 -13.5t55.5 -36t37.5 -52.5t17 -62z" />
    <glyph glyph-name="section" unicode="&#xa7;" horiz-adv-x="490" 
d="M440 654l-127 -32q-2 24 -12.5 33t-30.5 9h-50q-23 0 -32.5 -8.5t-9.5 -30.5q0 -23 23 -31l143 -53q45 -17 70.5 -52.5t25.5 -85.5v-36q0 -27 -9 -52t-28 -44q14 -15 21.5 -30.5t11.5 -32.5q2 -8 2.5 -17t1.5 -18v-39q0 -29 -10 -53.5t-27.5 -42.5t-41.5 -28t-53 -10
h-125q-29 0 -53 10t-41.5 28t-28 43t-10.5 55l128 32q1 -24 11.5 -33.5t30.5 -9.5h51q23 0 32.5 10t9.5 33q0 12 -8 18t-19 11l-136 50q-44 16 -72 53t-28 85v38q0 27 9.5 52.5t29.5 44.5q-15 16 -22.5 30.5t-11.5 31.5q-2 8 -3 17l-2 18v39q0 29 10 53.5t27.5 42.5t41.5 28
t53 10h126q28 0 52.5 -10t42 -28t27.5 -43t10 -55zM313 394q0 11 -3 16.5t-8 10.5q-3 2 -6.5 3.5t-7.5 3.5t-7.5 3t-8.5 3l-15.5 6l-22.5 9q-11 5 -20.5 8t-12.5 3q-9 0 -13.5 -8t-7 -18.5t-3 -21t-0.5 -16.5q0 -17 9 -24.5t24 -13.5l15.5 -6l21.5 -8q12 -5 21.5 -8t12.5 -3
q8 0 14 6.5t10 16t6 20t2 18.5z" />
    <glyph glyph-name="bullet" unicode="&#x2022;" horiz-adv-x="342" 
d="M242 395q0 -25 -9.5 -47t-26 -38.5t-38.5 -26t-47 -9.5t-47 9.5t-38.5 26t-26 38.5t-9.5 47t9.5 47t26 38.5t38.5 26t47 9.5t47 -9.5t38.5 -26t26 -38.5t9.5 -47z" />
    <glyph glyph-name="paragraph" unicode="&#xb6;" horiz-adv-x="470" 
d="M415 0h-140v325h-40q-38 0 -70.5 14t-57 38t-38.5 57t-14 71v105q0 37 14 70t38.5 57.5t57 38.5t70.5 14h180v-790z" />
    <glyph glyph-name="germandbls" unicode="&#xdf;" horiz-adv-x="509" 
d="M459 140q0 -30 -10.5 -55.5t-29.5 -44.5t-44.5 -29.5t-55.5 -10.5h-100v126h60q50 0 50 50v117q0 50 -50 50h-60v126h60q26 0 38 16.5t12 43.5v85q0 50 -44 50h-55q-27 0 -38.5 -12.5t-11.5 -38.5v-613h-130v648q0 30 10.5 56t29.5 45t44.5 30t55.5 11h129
q30 0 55.5 -10.5t44.5 -29.5t29.5 -44.5t10.5 -55.5v-123q0 -30 -7 -51.5t-17 -35.5t-21.5 -22t-21.5 -12q10 -5 22 -13t22 -22t16.5 -35.5t6.5 -51.5v-144z" />
    <glyph glyph-name="registered" unicode="&#xae;" horiz-adv-x="907" 
d="M852 394q0 -83 -31.5 -155.5t-85.5 -126.5t-126.5 -85t-155.5 -31t-155.5 31t-126.5 85t-85 126.5t-31 155.5q0 82 31 155t85 127t126.5 85.5t155.5 31.5t155.5 -31.5t126.5 -85.5t85.5 -126.5t31.5 -155.5zM775 394q0 67 -25 126t-68.5 102.5t-102.5 68.5t-126 25
t-125.5 -25t-102 -68.5t-68.5 -102.5t-25 -126t25 -125.5t68.5 -102t102 -68.5t125.5 -25t126 25t102.5 68.5t68.5 102t25 125.5zM624 137h-97l-78 212h-58v-212h-91v512h207q24 0 45.5 -9t37.5 -25t25 -37.5t9 -45.5v-66q0 -49 -21 -77.5t-58 -38.5zM533 482v33
q0 23 -12 34.5t-33 11.5h-97v-124h97q45 0 45 45z" />
    <glyph glyph-name="copyright" unicode="&#xa9;" horiz-adv-x="907" 
d="M852 394q0 -83 -31.5 -155.5t-85.5 -126.5t-126.5 -85t-155.5 -31t-155.5 31t-126.5 85t-85 126.5t-31 155.5q0 82 31 155t85 127t126.5 85.5t155.5 31.5t155.5 -31.5t126.5 -85.5t85.5 -126.5t31.5 -155.5zM775 394q0 67 -25 126t-68.5 102.5t-102.5 68.5t-126 25
t-125.5 -25t-102 -68.5t-68.5 -102.5t-25 -126t25 -125.5t68.5 -102t102 -68.5t125.5 -25t126 25t102.5 68.5t68.5 102t25 125.5zM637 251q0 -27 -10 -50t-26.5 -39.5t-39.5 -25.5t-50 -9h-123q-55 0 -90.5 35.5t-35.5 90.5v280q0 55 35.5 90.5t90.5 35.5h123q27 0 50 -9.5
t39.5 -26t26.5 -39t10 -49.5l-118 -30q-1 40 -45 40h-49q-24 0 -34.5 -11t-10.5 -35v-212q0 -24 10.5 -35t34.5 -11h49q44 0 45 40z" />
    <glyph glyph-name="trademark" unicode="&#x2122;" horiz-adv-x="625" 
d="M580 395h-70v188q0 2 -0.5 4.5t-2.5 2.5t-3 -2t-1 -4l-42 -113q-2 -6 -6 -6q-5 0 -5 6l-42 113q-1 1 -2 3t-3 2t-2.5 -2.5t-0.5 -3.5v-188h-70v395h65l55 -155l2 -4t3 -2t3 2l2 4l55 155h65v-395zM295 722h-90v-327h-70v327h-90v68h250v-68z" />
    <glyph glyph-name="acute" unicode="&#xb4;" 
d="M372 752l-153 -123l-53 52l128 155z" />
    <glyph glyph-name="dieresis" unicode="&#xa8;" 
d="M415 640h-121v114h121v-114zM219 640h-119v114h119v-114z" />
    <glyph glyph-name="notequal" unicode="&#x2260;" horiz-adv-x="530" 
d="M475 191h-214l-40 -134h-115l40 134h-91v136h132l41 136h-173v134h213l41 136h115l-41 -136h92v-134h-132l-41 -136h173v-136z" />
    <glyph glyph-name="AE" unicode="&#xc6;" horiz-adv-x="790" 
d="M735 0h-325l-26 131h-158l-26 -131h-145l182 790h498v-136h-331l44 -191h187v-136h-155l44 -191h211v-136zM358 267l-43 223q-1 4 -3 10t-7 6t-7 -6t-3 -10l-43 -223h106z" />
    <glyph glyph-name="Oslash" unicode="&#xd8;" 
d="M555 180q0 -38 -14 -70.5t-38.5 -57t-57.5 -38.5t-70 -14h-133l-21 -70h-115l30 99q-37 24 -59 63.5t-22 87.5v430q0 37 14 70t38.5 57.5t57 38.5t70.5 14h132l21 70h115l-30 -99q38 -24 60 -63.5t22 -87.5v-430zM415 569l-131 -433h61q34 0 52 18.5t18 51.5v363z
M326 654h-61q-70 0 -70 -70v-361z" />
    <glyph glyph-name="infinity" unicode="&#x221e;" horiz-adv-x="659" 
d="M604 393q0 -33 -10.5 -60t-29.5 -46.5t-45.5 -30t-57.5 -10.5q-42 0 -74 19t-57 49q-25 -29 -57.5 -48.5t-73.5 -19.5q-64 0 -104 41t-40 108q0 32 11 59t30.5 46.5t46 30t56.5 10.5q41 0 73 -19.5t56 -48.5q26 30 58 49t74 19q31 0 57.5 -11t46 -30.5t30 -46.5t10.5 -60
zM495 394q0 22 -12 34.5t-31 12.5q-20 0 -36 -13t-29 -33q14 -20 30 -34t36 -14q18 0 30 12.5t12 34.5zM272 393q-14 20 -30.5 34t-35.5 14t-31 -12.5t-12 -35.5q0 -22 12.5 -34t30.5 -12q20 0 36 13t30 33z" />
    <glyph glyph-name="plusminus" unicode="&#xb1;" horiz-adv-x="530" 
d="M475 433h-142v-144h-136v144h-142v132h142v144h136v-144h142v-132zM475 76h-420v136h420v-136z" />
    <glyph glyph-name="lessequal" unicode="&#x2264;" horiz-adv-x="531" 
d="M476 242l-420 176v123l420 176v-150l-238 -88l238 -88v-149zM475 76h-420v136h420v-136z" />
    <glyph glyph-name="greaterequal" unicode="&#x2265;" horiz-adv-x="531" 
d="M475 418l-420 -176v149l238 88l-238 88v150l420 -176v-123zM476 76h-420v136h420v-136z" />
    <glyph glyph-name="yen" unicode="&#xa5;" 
d="M555 205h-180v-205h-140v205h-178v120h163l-23 50h-140v120h87l-64 141q-14 29 -19.5 55t-5.5 52v47h140v-31q0 -15 3 -32.5t10 -32.5l97 -226l97 226q7 16 10 33t3 32v31h140v-48q0 -50 -25 -106l-64 -141h89v-120h-142l-23 -50h165v-120z" />
    <glyph glyph-name="mu" unicode="&#xb5;" horiz-adv-x="503" 
d="M453 141q0 -30 -10.5 -56t-29 -45t-44 -30t-55.5 -11h-49q-23 0 -48 11t-37 26v-236h-130v790h130v-414q0 -50 50 -50h43q50 0 50 50v414h130v-449z" />
    <glyph glyph-name="partialdiff" unicode="&#x2202;" horiz-adv-x="515" 
d="M465 140q0 -30 -10.5 -56t-29.5 -44.5t-44.5 -29t-55.5 -10.5h-135q-30 0 -55.5 10.5t-44.5 29t-29.5 44.5t-10.5 56v310q0 30 10.5 56t29.5 44.5t44.5 29t55.5 10.5h50l-153 200h155l190 -248q15 -19 24 -42.5t9 -50.5v-309zM335 177v236q0 51 -50 51h-55q-50 0 -50 -51
v-236q0 -51 50 -51h55q50 0 50 51z" />
    <glyph glyph-name="summation" unicode="&#x2211;" horiz-adv-x="592" 
d="M537 -199h-482v136l255 359l-255 358v136h482v-136h-307l252 -358l-252 -359h307v-136z" />
    <glyph glyph-name="product" unicode="&#x220f;" horiz-adv-x="630" 
d="M580 654h-45v-854h-140v854h-160v-854h-140v854h-45v136h530v-136z" />
    <glyph glyph-name="pi" unicode="&#x3c0;" horiz-adv-x="534" 
d="M489 464h-35v-464h-130v464h-114v-464h-130v464h-35v126h444v-126z" />
    <glyph glyph-name="integral" unicode="&#x222b;" horiz-adv-x="355" 
d="M425 966l-15 -110h-49q-55 0 -61 -53l-117 -830q-9 -68 -53.5 -107t-112.5 -39h-87l15 110h49q26 0 42 15.5t20 41.5l115 816q4 34 20 62.5t39.5 49.5t53.5 32.5t64 11.5h77z" />
    <glyph glyph-name="ordfeminine" unicode="&#xaa;" horiz-adv-x="328" 
d="M298 395h-70l-10 23q-7 -10 -20.5 -16.5t-29.5 -6.5h-49q-41 0 -67.5 26.5t-26.5 67.5v54q0 41 26.5 67.5t67.5 26.5h92v34q0 34 -33 34h-33q-18 0 -25.5 -7.5t-8.5 -21.5l-83 20v7q0 41 26.5 64t67.5 23h82q41 0 67.5 -26t26.5 -68v-301zM211 513v39h-65q-34 0 -34 -34
v-5q0 -34 34 -34h32q33 0 33 34z" />
    <glyph glyph-name="ordmasculine" unicode="&#xba;" horiz-adv-x="338" 
d="M308 489q0 -41 -26.5 -67.5t-67.5 -26.5h-90q-41 0 -67.5 26t-26.5 67v208q0 42 26.5 68t67.5 26h90q41 0 67.5 -26.5t26.5 -67.5v-207zM221 513v158q0 34 -34 34h-36q-34 0 -34 -34v-158q0 -34 34 -34h36q34 0 34 34z" />
    <glyph glyph-name="Omega" unicode="&#x2126;" 
d="M555 0h-220v165q38 6 59 29t21 68v322q0 70 -70 70h-80q-35 0 -52.5 -18.5t-17.5 -51.5v-322q0 -45 21.5 -68.5t59.5 -29.5v-164h-221v136h81v3q-43 20 -62 63t-19 118v290q0 37 14 70t38.5 57.5t57 38.5t70.5 14h140q37 0 70 -14t57.5 -38.5t38.5 -57.5t14 -70v-290
q0 -75 -19 -118t-61 -62v-4h80v-136z" />
    <glyph glyph-name="ae" unicode="&#xe6;" horiz-adv-x="775" 
d="M725 228h-277v-63q4 -39 50 -39h49q27 0 37.5 11.5t12.5 33.5l123 -31v-9q0 -61 -39 -96t-101 -35h-110q-31 0 -58 10t-38 27q-6 -8 -17.5 -15t-25 -12t-27.5 -7.5t-25 -2.5h-99q-30 0 -55.5 10.5t-44.5 29.5t-29.5 45t-10.5 56v80q0 30 10.5 56t29.5 44.5t44.5 29.5
t55.5 11h137v65q-6 37 -49 37h-49q-27 0 -38 -11.5t-13 -33.5l-123 31v9q0 61 39.5 96t101.5 35h117q21 0 44 -7.5t36 -22.5q12 15 35 22.5t43 7.5h124q30 0 56 -10.5t44.5 -29.5t29 -45t10.5 -56v-221zM595 414q1 50 -50 50h-47q-46 0 -50 -38v-71h147v59zM317 164v71h-97
q-26 0 -38 -12t-12 -39v-8q0 -50 50 -50h48q45 0 49 38z" />
    <glyph glyph-name="oslash" unicode="&#xf8;" horiz-adv-x="515" 
d="M465 140q0 -30 -10.5 -56t-29.5 -44.5t-44.5 -29t-55.5 -10.5h-108l-21 -70h-99l26 86q-33 17 -53 49.5t-20 74.5v310q0 30 10.5 56t29.5 44.5t44.5 29t55.5 10.5h107l22 70h99l-26 -86q33 -17 53 -50t20 -75v-309zM259 464h-29q-50 0 -50 -51v-209zM335 177v210
l-79 -261h29q50 0 50 51z" />
    <glyph glyph-name="questiondown" unicode="&#xbf;" horiz-adv-x="580" 
d="M414 654h-140v136h140v-136zM535 161q-2 -32 -16 -61t-38 -51t-56 -35.5t-70 -13.5h-120q-38 0 -70.5 14t-57 38.5t-38.5 57t-14 70.5v61q0 40 17 77t43 60l126 114q19 17 26 33t7 40v19h140v-49q0 -35 -15 -68.5t-38 -54.5l-131 -119q-35 -32 -35 -75v-12q0 -70 70 -70
h60q35 0 51.5 18t18.5 43z" />
    <glyph glyph-name="exclamdown" unicode="&#xa1;" horiz-adv-x="250" 
d="M195 650h-140v140h140v-140zM195 0h-140v580h140v-580z" />
    <glyph glyph-name="logicalnot" unicode="&#xac;" 
d="M555 192h-140v225h-360v136h500v-361z" />
    <glyph glyph-name="radical" unicode="&#x221a;" horiz-adv-x="504" 
d="M504 860l-199 -860h-107l-81 354h-77v111h167l45 -200l136 595h116z" />
    <glyph glyph-name="florin" unicode="&#x192;" horiz-adv-x="460" 
d="M440 789l-22 -126h-88q-50 0 -59 -50l-6 -33h128l-22 -126h-128l-90 -514q-5 -30 -20.5 -55.5t-37.5 -44.5t-49.5 -29.5t-57.5 -10.5h-128l22 126h88q50 0 59 50l84 478h-50l23 126h50l12 68q5 30 20.5 56t37.5 45t49.5 29.5t57.5 10.5h127z" />
    <glyph glyph-name="approxequal" unicode="&#x2248;" horiz-adv-x="532" 
d="M477 476q-28 -29 -56.5 -52t-65.5 -23q-27 0 -51 12t-46.5 27t-43.5 27t-42 12q-35 0 -64.5 -24t-52.5 -54v136q29 34 59 54t70 20q25 0 48 -12t45.5 -26.5t44 -26.5t44.5 -12q16 0 31 7t29 18t27 24.5t24 26.5v-134zM477 249q-28 -29 -56.5 -52t-65.5 -23q-27 0 -51 12
t-46.5 27t-43.5 27t-42 12q-34 0 -64 -23.5t-53 -54.5v136q29 35 59 54.5t70 19.5q25 0 48 -12t45.5 -26.5t44.5 -26.5t44 -12q16 0 31 7t29 18t27 24.5t24 27.5v-135z" />
    <glyph glyph-name="Delta" unicode="&#x2206;" horiz-adv-x="659" 
d="M604 62q0 -63 -64 -63h-417q-68 0 -68 70q0 18 4 31l185 621q21 70 85 70q65 0 84 -70l184 -618q7 -22 7 -41zM462 121l-133 462l-133 -462h266z" />
    <glyph glyph-name="guillemotleft" unicode="&#xab;" horiz-adv-x="563" 
d="M508 114h-130l-109 181l109 182h130l-108 -182zM295 114h-131l-109 181l109 182h131l-109 -182z" />
    <glyph glyph-name="guillemotright" unicode="&#xbb;" horiz-adv-x="563" 
d="M508 295l-109 -181h-130l108 181l-108 182h130zM295 295l-109 -181h-131l109 181l-109 182h131z" />
    <glyph glyph-name="ellipsis" unicode="&#x2026;" horiz-adv-x="706" 
d="M651 0h-134v130h134v-130zM420 0h-134v130h134v-130zM189 0h-134v130h134v-130z" />
    <glyph glyph-name="uni00A0" unicode="&#xa0;" horiz-adv-x="165" 
 />
    <glyph glyph-name="Agrave" unicode="&#xc0;" 
d="M400 881l-53 -52l-153 123l78 84zM555 0h-145l-26 131h-158l-26 -131h-145l182 790h136zM358 267l-43 223q-1 4 -3 10t-7 6t-7 -6t-3 -10l-43 -223h106z" />
    <glyph glyph-name="Atilde" unicode="&#xc3;" 
d="M467 953l-1 -20q-1 -54 -25 -79t-75 -25q-17 0 -33.5 6t-32 13l-29.5 13t-26 6q-32 0 -32 -37h-71l1 19q1 54 24.5 79.5t74.5 24.5q19 0 34.5 -6t29.5 -13t28 -13t30 -6q17 0 24 11t7 27h72zM555 0h-145l-26 131h-158l-26 -131h-145l182 790h136zM358 267l-43 223
q-1 4 -3 10t-7 6t-7 -6t-3 -10l-43 -223h106z" />
    <glyph glyph-name="Otilde" unicode="&#xd5;" 
d="M466 954v-20q-2 -54 -25.5 -79t-74.5 -25q-18 0 -34.5 6t-31.5 13l-29 13t-26 6q-32 0 -32 -37h-71v19q2 54 25.5 79.5t74.5 24.5q18 0 33.5 -6t30 -13t28.5 -13t30 -6q17 0 23.5 11t7.5 27h71zM555 180q0 -38 -14 -70.5t-38.5 -57t-57.5 -38.5t-70 -14h-140
q-38 0 -70.5 14t-57 38t-38.5 57t-14 71v430q0 37 14 70t38.5 57.5t57 38.5t70.5 14h140q37 0 70 -14t57.5 -38.5t38.5 -57.5t14 -70v-430zM415 206v378q0 70 -70 70h-80q-70 0 -70 -70v-378q0 -70 70 -70h80q34 0 52 18.5t18 51.5z" />
    <glyph glyph-name="OE" unicode="&#x152;" horiz-adv-x="890" 
d="M835 0h-420v26q-32 -26 -80 -26h-100q-38 0 -70.5 14t-57 38t-38.5 57t-14 71v430q0 37 14 70t38.5 57.5t57 38.5t70.5 14h100q23 0 45 -6.5t35 -19.5v26h420v-136h-290v-191h190v-136h-190v-191h290v-136zM405 206v378q0 70 -70 70h-70q-70 0 -70 -70v-378q0 -70 70 -70
h70q34 0 52 18.5t18 51.5z" />
    <glyph glyph-name="oe" unicode="&#x153;" horiz-adv-x="793" 
d="M743 228h-278v-51q0 -51 51 -51h49q27 0 37.5 11.5t12.5 33.5l123 -31v-9q0 -61 -39.5 -96t-100.5 -35h-122q-22 0 -43.5 9.5t-32.5 20.5q-13 -12 -33.5 -21t-41.5 -9h-135q-30 0 -55.5 10.5t-44.5 29t-29.5 44.5t-10.5 56v310q0 30 10.5 56t29.5 44.5t44.5 29t55.5 10.5
h135q21 0 40.5 -7.5t34.5 -22.5q32 30 74 30h129q30 0 56 -10.5t44.5 -29.5t29 -45t10.5 -56v-221zM613 414q1 50 -50 50h-47q-27 0 -39 -12t-12 -38v-59h148v59zM335 177v210v26v3q0 48 -50 48h-55q-50 0 -50 -51v-236q0 -51 50 -51h55q50 0 50 51z" />
    <glyph glyph-name="endash" unicode="&#x2013;" horiz-adv-x="443" 
d="M423 275h-403v136h403v-136z" />
    <glyph glyph-name="emdash" unicode="&#x2014;" horiz-adv-x="677" 
d="M657 275h-637v136h637v-136z" />
    <glyph glyph-name="quotedblleft" unicode="&#x201c;" horiz-adv-x="421" 
d="M401 843l-58 -244l-123 43l106 228zM221 843l-58 -244l-123 43l106 228z" />
    <glyph glyph-name="quotedblright" unicode="&#x201d;" horiz-adv-x="431" 
d="M391 827l-105 -228l-76 26l58 245zM211 827l-105 -228l-76 26l58 245z" />
    <glyph glyph-name="quoteleft" unicode="&#x2018;" horiz-adv-x="241" 
d="M221 843l-58 -244l-123 43l106 228z" />
    <glyph glyph-name="quoteright" unicode="&#x2019;" horiz-adv-x="251" 
d="M211 827l-105 -228l-76 26l58 245z" />
    <glyph glyph-name="divide" unicode="&#xf7;" horiz-adv-x="530" 
d="M335 533h-140v136h140v-136zM475 327h-420v136h420v-136zM335 121h-140v136h140v-136z" />
    <glyph glyph-name="lozenge" unicode="&#x25ca;" horiz-adv-x="530" 
d="M486 398l-141 -335q-27 -64 -77 -64t-78 63l-146 334l146 332q28 63 78 63t77 -63zM370 396l-102 246l-111 -248l111 -251z" />
    <glyph glyph-name="ydieresis" unicode="&#xff;" horiz-adv-x="500" 
d="M407 641h-121v114h121v-114zM211 641h-119v114h119v-114zM480 590l-186 -661q-9 -34 -26 -58.5t-39 -40t-48 -23t-54 -7.5h-54v126h40q52 0 67 52l6 22l-166 590h133l87 -341q1 -3 3 -7.5t6 -4.5q5 0 6.5 4.5l2.5 7.5l89 341h133z" />
    <glyph glyph-name="Ydieresis" unicode="&#x178;" 
d="M463 839h-120v115h120v-115zM267 839h-119v115h119v-115zM555 742q0 -50 -25 -106l-155 -345v-291h-140v291l-155 345q-14 29 -19.5 55t-5.5 52v47h140v-31q0 -15 3 -32.5t10 -32.5l97 -226l97 226q7 16 10 33t3 32v31h140v-48z" />
    <glyph glyph-name="fraction" unicode="&#x2044;" horiz-adv-x="397" 
d="M397 860l-282 -930h-115l282 930h115z" />
    <glyph glyph-name="Euro" unicode="&#x20ac;" horiz-adv-x="635" 
d="M580 163q-3 -32 -17.5 -61.5t-38 -52t-55.5 -36t-69 -13.5h-130q-38 0 -70.5 14t-57 38.5t-38.5 57t-14 70.5v69h-50v116h50v60h-50v116h50v69q0 37 14 70t38.5 57.5t57 38.5t70.5 14h130q37 0 69 -13.5t55.5 -36t38 -52.5t17.5 -63l-140 -35q0 26 -18 45t-52 19h-70
q-70 0 -70 -70v-43h150v-116h-150v-60h150v-116h-150v-43q0 -70 70 -70h70q33 0 51.5 16.5t18.5 45.5z" />
    <glyph glyph-name="guilsinglleft" unicode="&#x2039;" horiz-adv-x="350" 
d="M295 114h-131l-109 181l109 182h131l-109 -182z" />
    <glyph glyph-name="guilsinglright" unicode="&#x203a;" horiz-adv-x="350" 
d="M295 295l-109 -181h-131l109 181l-109 182h131z" />
    <glyph glyph-name="fi" unicode="&#xfb01;" horiz-adv-x="578" 
d="M528 663h-130v126h130v-126zM528 0h-130v590h130v-590zM333 663h-88q-50 0 -50 -50v-28h128v-126h-128v-459h-130v459h-50v126h50v63q0 30 10.5 56t29.5 45t44.5 29.5t55.5 10.5h128v-126z" />
    <glyph glyph-name="fl" unicode="&#xfb02;" horiz-adv-x="578" 
d="M528 0h-130v790h130v-790zM333 663h-88q-50 0 -50 -50v-28h128v-126h-128v-459h-130v459h-50v126h50v63q0 30 10.5 56t29.5 45t44.5 29.5t55.5 10.5h128v-126z" />
    <glyph glyph-name="daggerdbl" unicode="&#x2021;" horiz-adv-x="338" 
d="M293 396h-90v-100h-68v100h-90v63h90v168h-90v63h90v100h68v-100h90v-63h-90v-168h90v-63z" />
    <glyph glyph-name="periodcentered" unicode="&#xb7;" horiz-adv-x="250" 
d="M195 327h-140v136h140v-136z" />
    <glyph glyph-name="quotesinglbase" unicode="&#x201a;" horiz-adv-x="251" 
d="M211 107l-105 -228l-76 26l58 245z" />
    <glyph glyph-name="quotedblbase" unicode="&#x201e;" horiz-adv-x="431" 
d="M391 107l-105 -228l-76 26l58 245zM211 107l-105 -228l-76 26l58 245z" />
    <glyph glyph-name="perthousand" unicode="&#x2030;" horiz-adv-x="1392" 
d="M1342 125q0 -26 -9.5 -49t-26.5 -40t-39.5 -27t-48.5 -10h-78q-26 0 -48.5 10t-39 27t-26 40t-9.5 49v248q0 26 9.5 49t26 40t39 27t48.5 10h78q26 0 48.5 -10t39.5 -27t26.5 -40t9.5 -49v-248zM947 125q0 -26 -9.5 -49t-26.5 -40t-39.5 -27t-48.5 -10h-78
q-26 0 -48.5 10t-39 27t-26 40t-9.5 49v248q0 26 9.5 49t26 40t39 27t48.5 10h78q26 0 48.5 -10t39.5 -27t26.5 -40t9.5 -49v-248zM673 791l-239 -791h-115l239 791h115zM375 416q0 -26 -9.5 -48.5t-26.5 -39.5t-39.5 -27t-47.5 -10h-79q-26 0 -48 9.5t-39 26.5t-26.5 40
t-9.5 50v247q0 26 9.5 49t26.5 40t39 27t48 10h79q25 0 47.5 -10t39.5 -27t26.5 -40t9.5 -49v-248zM1234 142v214q0 36 -35 36h-40q-35 0 -35 -36v-214q0 -36 35 -36h40q35 0 35 36zM839 142v214q0 36 -35 36h-40q-35 0 -35 -36v-214q0 -36 35 -36h40q35 0 35 36zM268 433
v214q0 36 -35 36h-41q-35 0 -35 -36v-214q0 -35 35 -35h41q35 0 35 35z" />
    <glyph glyph-name="Acircumflex" unicode="&#xc2;" 
d="M467 855l-102 -25l-60 66l-61 -67l-102 25l114 126h98zM555 0h-145l-26 131h-158l-26 -131h-145l182 790h136zM358 267l-43 223q-1 4 -3 10t-7 6t-7 -6t-3 -10l-43 -223h106z" />
    <glyph glyph-name="Ecircumflex" unicode="&#xca;" 
d="M472 856l-101 -25l-61 66l-61 -67l-102 25l114 126h98zM555 0h-500v790h500v-136h-360v-191h260v-136h-260v-191h360v-136z" />
    <glyph glyph-name="Aacute" unicode="&#xc1;" 
d="M431 952l-153 -123l-52 52l127 155zM555 0h-145l-26 131h-158l-26 -131h-145l182 790h136zM358 267l-43 223q-1 4 -3 10t-7 6t-7 -6t-3 -10l-43 -223h106z" />
    <glyph glyph-name="Edieresis" unicode="&#xcb;" 
d="M464 840h-121v115h121v-115zM268 840h-120v115h120v-115zM555 0h-500v790h500v-136h-360v-191h260v-136h-260v-191h360v-136z" />
    <glyph glyph-name="Egrave" unicode="&#xc8;" 
d="M396 880l-53 -52l-153 123l79 84zM555 0h-500v790h500v-136h-360v-191h260v-136h-260v-191h360v-136z" />
    <glyph glyph-name="Iacute" unicode="&#xcd;" horiz-adv-x="250" 
d="M246 949l-153 -123l-53 52l127 155zM195 0h-140v790h140v-790z" />
    <glyph glyph-name="Icircumflex" unicode="&#xce;" horiz-adv-x="250" 
d="M287 855l-102 -25l-60 66l-61 -67l-102 25l114 126h98zM195 0h-140v790h140v-790z" />
    <glyph glyph-name="Idieresis" unicode="&#xcf;" horiz-adv-x="250" 
d="M282 841h-120v115h120v-115zM86 841h-119v115h119v-115zM195 0h-140v790h140v-790z" />
    <glyph glyph-name="Igrave" unicode="&#xcc;" horiz-adv-x="250" 
d="M206 878l-52 -52l-153 123l78 84zM195 0h-140v790h140v-790z" />
    <glyph glyph-name="Oacute" unicode="&#xd3;" 
d="M431 952l-153 -123l-53 52l127 155zM555 180q0 -38 -14 -70.5t-38.5 -57t-57.5 -38.5t-70 -14h-140q-38 0 -70.5 14t-57 38t-38.5 57t-14 71v430q0 37 14 70t38.5 57.5t57 38.5t70.5 14h140q37 0 70 -14t57.5 -38.5t38.5 -57.5t14 -70v-430zM415 206v378q0 70 -70 70h-80
q-70 0 -70 -70v-378q0 -70 70 -70h80q34 0 52 18.5t18 51.5z" />
    <glyph glyph-name="Ocircumflex" unicode="&#xd4;" 
d="M467 855l-102 -25l-61 66l-60 -67l-102 25l113 126h99zM555 180q0 -38 -14 -70.5t-38.5 -57t-57.5 -38.5t-70 -14h-140q-38 0 -70.5 14t-57 38t-38.5 57t-14 71v430q0 37 14 70t38.5 57.5t57 38.5t70.5 14h140q37 0 70 -14t57.5 -38.5t38.5 -57.5t14 -70v-430zM415 206
v378q0 70 -70 70h-80q-70 0 -70 -70v-378q0 -70 70 -70h80q34 0 52 18.5t18 51.5z" />
    <glyph glyph-name="apple" unicode="&#xf8ff;" horiz-adv-x="848" 
d="M823 0h-174l-273 401l270 398h177v-799zM322 0h-297v799h295l-271 -397z" />
    <glyph glyph-name="Ograve" unicode="&#xd2;" 
d="M387 878l-53 -52l-153 123l78 84zM555 180q0 -38 -14 -70.5t-38.5 -57t-57.5 -38.5t-70 -14h-140q-38 0 -70.5 14t-57 38t-38.5 57t-14 71v430q0 37 14 70t38.5 57.5t57 38.5t70.5 14h140q37 0 70 -14t57.5 -38.5t38.5 -57.5t14 -70v-430zM415 206v378q0 70 -70 70h-80
q-70 0 -70 -70v-378q0 -70 70 -70h80q34 0 52 18.5t18 51.5z" />
    <glyph glyph-name="Uacute" unicode="&#xda;" 
d="M437 949l-153 -123l-53 52l127 155zM555 180q0 -38 -14 -70.5t-38.5 -57t-57.5 -38.5t-70 -14h-140q-38 0 -71 14t-57 38.5t-38 57t-14 70.5v610h140v-584q0 -70 70 -70h80q70 0 70 70v584h140v-610z" />
    <glyph glyph-name="Ucircumflex" unicode="&#xdb;" 
d="M472 852l-102 -25l-61 66l-60 -67l-102 25l113 126h98zM555 180q0 -38 -14 -70.5t-38.5 -57t-57.5 -38.5t-70 -14h-140q-38 0 -71 14t-57 38.5t-38 57t-14 70.5v610h140v-584q0 -70 70 -70h80q70 0 70 70v584h140v-610z" />
    <glyph glyph-name="Ugrave" unicode="&#xd9;" 
d="M383 878l-52 -52l-153 123l78 84zM555 180q0 -38 -14 -70.5t-38.5 -57t-57.5 -38.5t-70 -14h-140q-38 0 -71 14t-57 38.5t-38 57t-14 70.5v610h140v-584q0 -70 70 -70h80q70 0 70 70v584h140v-610z" />
    <glyph glyph-name="dotlessi" unicode="&#x131;" horiz-adv-x="230" 
d="M180 0h-130v590h130v-590z" />
    <glyph glyph-name="circumflex" unicode="&#x2c6;" 
d="M437 655l-102 -25l-60 66l-61 -67l-102 25l114 126h98z" />
    <glyph glyph-name="tilde" unicode="&#x2dc;" 
d="M441 763v-20q-2 -54 -25.5 -79.5t-74.5 -25.5q-17 0 -33.5 6t-32 13l-29.5 13.5t-26 6.5q-32 0 -32 -37h-71v19q2 54 25.5 79t74.5 25q18 0 33.5 -6t30 -13t28.5 -13t30 -6q17 0 24 10.5t7 27.5h71z" />
    <glyph glyph-name="macron" unicode="&#xaf;" 
d="M406 645h-306v96h306v-96z" />
    <glyph glyph-name="breve" unicode="&#x2d8;" 
d="M418 772q-4 -69 -46.5 -105.5t-109.5 -36.5q-69 0 -112.5 36t-51.5 106h81q11 -31 29.5 -41t49.5 -10t52.5 8.5t30.5 42.5h77z" />
    <glyph glyph-name="dotaccent" unicode="&#x2d9;" 
d="M354 640h-140v136h140v-136z" />
    <glyph glyph-name="ring" unicode="&#x2da;" 
d="M370 747q0 -24 -8.5 -45t-23.5 -37t-35.5 -25.5t-44.5 -9.5t-45 9.5t-36 25.5t-23.5 37t-8.5 45t8.5 45t23.5 37.5t36 26t45 9.5t44.5 -9.5t35.5 -26t23.5 -37.5t8.5 -45zM297 748q0 17 -11 29t-28 12t-28.5 -12t-11.5 -29t11.5 -29.5t28.5 -12.5t28 12.5t11 29.5z" />
    <glyph glyph-name="cedilla" unicode="&#xb8;" 
d="M396 -118q0 -48 -22.5 -65t-73.5 -17h-86v55h32q10 0 19 1q36 0 36 32t-38 32h-35l17 101h88l-11 -56q17 0 30.5 -3.5t23.5 -12.5t15 -25t5 -42z" />
    <glyph glyph-name="hungarumlaut" unicode="&#x2dd;" 
d="M450 771l-106 -142l-57 34l76 164zM300 771l-106 -142l-57 34l76 164z" />
    <glyph glyph-name="ogonek" unicode="&#x2db;" 
d="M385 -124l-20 -78q-20 -12 -42.5 -19t-47.5 -7q-45 0 -74 26.5t-29 71.5q0 44 32.5 83t81.5 61l70 -5q-40 -25 -56 -55t-16 -50t12 -31t36 -11q26 0 53 14z" />
    <glyph glyph-name="caron" unicode="&#x2c7;" 
d="M420 766l-114 -126h-98l-113 125l102 25l60 -66l61 67z" />
    <glyph glyph-name="currency" unicode="&#xa4;" horiz-adv-x="662" 
d="M607 212l-92 -93l-89 89q-22 -11 -45.5 -18t-48.5 -7q-49 0 -96 25l-89 -89l-92 93l89 89q-11 22 -18 45.5t-7 48.5q0 48 25 95l-89 90l92 92l89 -90q47 25 96 25t94 -25l89 90l92 -93l-89 -89q25 -45 25 -95q0 -26 -6.5 -49t-18.5 -46zM423 395q0 39 -26.5 65.5
t-66.5 26.5q-38 0 -64.5 -26.5t-26.5 -64.5q0 -39 27 -66t66 -27q19 0 35.5 7t29 19.5t19.5 29.5t7 36z" />
    <glyph glyph-name="indianrupeesign" unicode="&#x20b9;" horiz-adv-x="629" 
d="M574 616l-29 -116h-70q-2 -73 -34 -115t-88 -56l122 -329h-150l-120 327h-90v117h150q29 0 46 16t22 40h-278l29 116h248q-6 24 -23 40t-44 16h-210l29 118h490l-29 -118h-82q5 -12 7.5 -27t4.5 -29h99z" />
    <glyph glyph-name="onethird" unicode="&#x2153;" horiz-adv-x="798" 
d="M748 120q0 -25 -9 -47t-25 -38t-37 -25.5t-46 -9.5h-88q-24 0 -44 10.5t-34.5 27t-23 37.5t-9.5 42l105 27q0 -21 6.5 -30t23.5 -9h47q30 0 30 30v31q0 31 -30 31h-55v104h55q30 0 30 31v30q0 31 -30 31h-47q-30 0 -30 -40l-105 28q5 51 37 84t80 33h82q24 0 45.5 -9.5
t37.5 -26t25 -38t9 -46.5v-55q0 -23 -8.5 -42t-22.5 -31q31 -28 31 -75v-55zM486 791l-239 -791h-115l239 791h115zM158 292h-108v498h108v-498z" />
    <glyph glyph-name="twothirds" unicode="&#x2154;" horiz-adv-x="998" 
d="M948 120q0 -25 -9 -47t-24.5 -38t-37 -25.5t-45.5 -9.5h-88q-25 0 -45 10.5t-34.5 27t-23 37.5t-9.5 42l105 27q0 -21 6.5 -30t23.5 -9h47q30 0 30 30v31q0 31 -30 31h-55v104h55q30 0 30 31v30q0 31 -30 31h-47q-30 0 -30 -40l-105 28q6 51 38 84t80 33h82q24 0 45 -9.5
t37 -26t25 -38t9 -46.5v-55q0 -23 -8 -42t-22 -31q30 -28 30 -75v-55zM686 791l-238 -791h-115l239 791h114zM365 292h-315v47q0 30 14.5 61t39.5 54l136 127q12 11 16.5 20.5t4.5 23.5v30q0 30 -30 30h-47q-14 0 -22 -8.5t-8 -31.5l-104 27q0 24 9 45t25 37.5t37.5 26
t45.5 9.5h81q24 0 45.5 -9.5t37.5 -25.5t25 -38t9 -47v-58q0 -29 -10.5 -54.5t-36.5 -49.5l-105 -98q-11 -10 -10 -13h162v-105z" />
    <glyph glyph-name="careof" unicode="&#x2105;" horiz-adv-x="1000" 
d="M950 125q0 -26 -9.5 -49t-26 -40t-39 -27t-48.5 -10h-78q-26 0 -48.5 10t-39.5 27t-26.5 40t-9.5 49v253q0 26 9.5 49t26.5 40t39.5 27t48.5 10h78q26 0 48.5 -10t39 -27t26 -40t9.5 -49v-253zM677 791l-239 -791h-115l239 791h115zM378 404q-1 -52 -31.5 -85.5
t-78.5 -33.5h-108q-24 0 -44 9t-34.5 25t-23 38t-8.5 48v267q0 53 31 86.5t79 33.5h108q48 0 78.5 -33t31.5 -85l-103 -28q-1 38 -40 38h-43q-39 0 -39 -44v-203q0 -43 39 -43h43q39 0 40 38zM843 142v219q0 36 -35 36h-40q-35 0 -35 -36v-219q0 -36 35 -36h40q35 0 35 36z
" />
    <glyph glyph-name="numero" unicode="&#x2116;" horiz-adv-x="1065" 
d="M1010 380q0 -30 -10.5 -55.5t-29.5 -44.5t-45 -29.5t-56 -10.5h-114q-30 0 -55.5 10.5t-44.5 29t-29.5 44.5t-10.5 56v270q0 30 10.5 56t29.5 44.5t44.5 29t55.5 10.5h114q30 0 56 -10.5t45 -29.5t29.5 -45t10.5 -56v-269zM990 54h-355v125h355v-125zM525 0h-131
l-199 443v-443h-140v790h132l198 -445v445h140v-790zM880 417v196q0 27 -12 39t-39 12h-34q-26 0 -38 -12t-12 -39v-196q0 -51 50 -51h34q27 0 39 12.5t12 38.5z" />
    <glyph glyph-name="Cacute" unicode="&#x106;" 
d="M430 953l-153 -123l-53 52l128 155zM555 163q-3 -32 -17.5 -61.5t-38 -52t-55.5 -36t-69 -13.5h-140q-38 0 -70.5 14t-57 38.5t-38.5 57t-14 70.5v430q0 37 14 70t38.5 57.5t57 38.5t70.5 14h140q37 0 69 -13.5t55.5 -36t38 -52.5t17.5 -63l-140 -35q0 26 -18 45t-52 19
h-80q-70 0 -70 -70v-378q0 -70 70 -70h80q33 0 51.5 16.5t18.5 45.5z" />
    <glyph glyph-name="cacute" unicode="&#x107;" horiz-adv-x="515" 
d="M372 752l-153 -123l-53 52l128 155zM465 138q0 -30 -11 -55.5t-29.5 -43.5t-43.5 -28.5t-55 -10.5h-137q-30 0 -55.5 10.5t-44 29t-29 44.5t-10.5 56v310q0 30 10.5 56t29 44.5t44 29t55.5 10.5h137q30 0 55.5 -10.5t44 -28.5t29 -43.5t10.5 -55.5l-130 -33q-3 45 -50 45
h-55q-50 0 -50 -51v-236q0 -51 50 -51h55q47 0 50 45z" />
    <glyph glyph-name="Lacute" unicode="&#x139;" 
d="M378 952l-153 -123l-53 52l128 155zM555 0h-500v790h140v-654h360v-136z" />
    <glyph glyph-name="lacute" unicode="&#x13a;" horiz-adv-x="230" 
d="M230 952l-153 -123l-53 52l128 155zM180 0h-130v790h130v-790z" />
    <glyph glyph-name="Nacute" unicode="&#x143;" 
d="M427 952l-153 -123l-53 52l128 155zM555 0h-131l-229 460v-460h-140v790h132l228 -462v462h140v-790z" />
    <glyph glyph-name="nacute" unicode="&#x144;" horiz-adv-x="503" 
d="M373 752l-153 -123l-53 52l128 155zM453 0h-130v413q0 51 -50 51h-43q-50 0 -50 -51v-413h-130v590h130v-36q12 15 37 25.5t48 10.5h49q30 0 55.5 -10.5t44 -29.5t29 -45t10.5 -56v-449z" />
    <glyph glyph-name="Racute" unicode="&#x154;" 
d="M424 952l-153 -123l-53 52l128 155zM555 0h-150l-120 327h-90v-327h-140v790h320q37 0 70 -14t57.5 -38.5t38.5 -57.5t14 -70v-102q0 -75 -32.5 -120t-89.5 -59zM415 533v51q0 34 -18.5 52t-51.5 18h-150v-191h150q70 0 70 70z" />
    <glyph glyph-name="racute" unicode="&#x155;" horiz-adv-x="361" 
d="M308 752l-153 -123l-53 52l128 155zM351 576l-30 -122q-10 6 -19 8t-30 2h-42q-50 -1 -50 -51v-413h-130v590h130v-52q12 30 37.5 42t45.5 12h32q15 0 30.5 -4t25.5 -12z" />
    <glyph glyph-name="Sacute" unicode="&#x15a;" 
d="M423 952l-153 -123l-53 52l128 155zM555 180q0 -38 -14 -70.5t-38.5 -57t-57.5 -38.5t-70 -14h-140q-38 0 -69 13t-54.5 35.5t-38 52.5t-18.5 65l140 35q2 -31 19 -48t51 -17h80q70 0 70 70v27q0 26 -9.5 39.5t-35.5 24.5l-182 73q-26 10 -49.5 25.5t-42.5 38t-30 51.5
t-11 66v59q0 37 14 70t38.5 57.5t57 38.5t70.5 14h140q38 0 69.5 -13.5t55 -36.5t38 -52.5t17.5 -61.5l-140 -35q-2 29 -19 46t-51 17h-80q-70 0 -70 -70v-10q0 -34 7.5 -50.5t33.5 -26.5l188 -75q58 -23 94.5 -63t36.5 -102v-77z" />
    <glyph glyph-name="sacute" unicode="&#x15b;" horiz-adv-x="515" 
d="M372 752l-153 -123l-53 52l128 155zM465 140q0 -30 -10.5 -56t-29 -44.5t-44 -29t-55.5 -10.5h-136q-30 0 -55.5 10.5t-44 28.5t-29.5 43.5t-11 55.5l130 33q2 -23 13.5 -34t37.5 -11h54q50 0 50 46v4q0 11 -7 19.5t-25 15.5l-147 54q-18 7 -37 19.5t-34.5 30.5t-25 42
t-9.5 53v40q0 30 10.5 55.5t29 44.5t44 29.5t55.5 10.5h137q30 0 55.5 -10.5t44 -28.5t29 -43.5t10.5 -55.5l-130 -33q-3 45 -50 45h-55q-26 0 -38 -11t-12 -30v-6q0 -14 5.5 -22.5t22.5 -14.5l155 -57q20 -7 38.5 -19t32.5 -30t22.5 -41.5t8.5 -53.5v-39z" />
    <glyph glyph-name="Zacute" unicode="&#x179;" 
d="M434 949l-153 -123l-53 52l128 155zM555 0h-500v130l336 525h-336v136l500 -1v-130l-335 -524h335v-136z" />
    <glyph glyph-name="zacute" unicode="&#x17a;" horiz-adv-x="512" 
d="M387 752l-153 -123l-53 52l128 155zM462 0h-412v100l247 364h-247v126h412v-100l-246 -364h246v-126z" />
    <glyph glyph-name="Wacute" unicode="&#x1e82;" 
d="M423 949l-153 -123l-53 52l128 155zM556 790l-44 -790h-132l-64 237q-1 4 -3 7.5t-7 3.5t-7 -3.5t-3 -7.5l-65 -237h-131l-45 790h141l22 -385q0 -3 1 -7t5 -4t6 4t3 7l62 229q1 4 3.5 7.5t7.5 3.5t7.5 -3.5t3.5 -7.5l61 -229q1 -3 3 -7t6 -4t5 4t1 7l22 385h141z" />
    <glyph glyph-name="wacute" unicode="&#x1e83;" horiz-adv-x="575" 
d="M401 752l-153 -123l-53 52l128 155zM555 590l-95 -590h-109l-54 182q-4 11 -9 11t-9 -11l-54 -182h-109l-96 590h133l43 -301q1 -3 3 -7.5t6 -4.5q5 0 6.5 4.5l2.5 7.5l63 188q2 8 5 10t6 2t6 -2t5 -10l62 -188q1 -3 3 -7.5t6 -4.5q5 0 7 4.5t2 7.5l43 301h133z" />
    <glyph glyph-name="AEacute" unicode="&#x1fc;" horiz-adv-x="790" 
d="M523 952l-153 -123l-53 52l128 155zM735 0h-325l-26 131h-158l-26 -131h-145l182 790h498v-136h-331l44 -191h187v-136h-155l44 -191h211v-136zM358 267l-43 223q-1 4 -3 10t-7 6t-7 -6t-3 -10l-43 -223h106z" />
    <glyph glyph-name="aeacute" unicode="&#x1fd;" horiz-adv-x="775" 
d="M509 753l-153 -123l-53 52l128 155zM725 228h-277v-63q4 -39 50 -39h49q27 0 37.5 11.5t12.5 33.5l123 -31v-9q0 -61 -39 -96t-101 -35h-110q-31 0 -58 10t-38 27q-6 -8 -17.5 -15t-25 -12t-27.5 -7.5t-25 -2.5h-99q-30 0 -55.5 10.5t-44.5 29.5t-29.5 45t-10.5 56v80
q0 30 10.5 56t29.5 44.5t44.5 29.5t55.5 11h137v65q-6 37 -49 37h-49q-27 0 -38 -11.5t-13 -33.5l-123 31v9q0 61 39.5 96t101.5 35h117q21 0 44 -7.5t36 -22.5q12 15 35 22.5t43 7.5h124q30 0 56 -10.5t44.5 -29.5t29 -45t10.5 -56v-221zM595 414q1 50 -50 50h-47
q-46 0 -50 -38v-71h147v59zM317 164v71h-97q-26 0 -38 -12t-12 -39v-8q0 -50 50 -50h48q45 0 49 38z" />
    <glyph glyph-name="Oslashacute" unicode="&#x1fe;" 
d="M423 949l-153 -123l-53 52l128 155zM555 180q0 -38 -14 -70.5t-38.5 -57t-57.5 -38.5t-70 -14h-133l-21 -70h-115l30 99q-37 24 -59 63.5t-22 87.5v430q0 37 14 70t38.5 57.5t57 38.5t70.5 14h132l21 70h115l-30 -99q38 -24 60 -63.5t22 -87.5v-430zM415 569l-131 -433
h61q34 0 52 18.5t18 51.5v363zM326 654h-61q-70 0 -70 -70v-361z" />
    <glyph glyph-name="oslashacute" unicode="&#x1ff;" horiz-adv-x="515" 
d="M367 752l-153 -123l-53 52l128 155zM465 140q0 -30 -10.5 -56t-29.5 -44.5t-44.5 -29t-55.5 -10.5h-108l-21 -70h-99l26 86q-33 17 -53 49.5t-20 74.5v310q0 30 10.5 56t29.5 44.5t44.5 29t55.5 10.5h107l22 70h99l-26 -86q33 -17 53 -50t20 -75v-309zM259 464h-29
q-50 0 -50 -51v-209zM335 177v210l-79 -261h29q50 0 50 51z" />
    <glyph glyph-name="Aringacute" unicode="&#x1fa;" 
d="M418 1141l-153 -123l-53 52l127 155zM555 0h-145l-26 131h-158l-26 -131h-145l181 787q-20 16 -31.5 40t-11.5 52q0 24 8.5 45.5t23.5 37.5t36 25.5t45 9.5t44.5 -9.5t35.5 -26t23.5 -37.5t8.5 -45q0 -28 -12 -52t-32 -41zM345 880q0 17 -11.5 29.5t-28.5 12.5
t-28.5 -12.5t-11.5 -29.5t11.5 -29.5t28.5 -12.5t28.5 12.5t11.5 29.5zM358 267l-43 223q-1 4 -3 10t-7 6t-7 -6t-3 -10l-43 -223h106z" />
    <glyph glyph-name="aringacute" unicode="&#x1fb;" horiz-adv-x="488" 
d="M365 1009l-153 -123l-53 52l128 155zM366 747q0 -24 -8.5 -45t-23.5 -37t-35.5 -25.5t-44.5 -9.5t-45 9.5t-36 25.5t-23.5 37t-8.5 45t8.5 45t23.5 37.5t36 26t45 9.5t44.5 -9.5t35.5 -26t23.5 -37.5t8.5 -45zM448 0h-105l-15 35q-10 -15 -30.5 -25t-44.5 -10h-73
q-30 0 -55.5 10.5t-44.5 29.5t-29.5 45t-10.5 56v80q0 30 10.5 56t29.5 44.5t44.5 29.5t55.5 11h138v51q0 51 -50 51h-49q-27 0 -38 -11.5t-13 -33.5l-123 31v9q0 61 39.5 96t101.5 35h122q30 0 55.5 -10.5t44.5 -29t29.5 -44.5t10.5 -56v-450zM293 748q0 17 -11.5 29
t-28.5 12t-28.5 -12t-11.5 -29t11.5 -29.5t28.5 -12.5t28.5 12.5t11.5 29.5zM318 176v59h-98q-26 0 -38 -12t-12 -39v-8q0 -50 50 -50h48q50 0 50 50z" />
    <glyph glyph-name="Ccaron" unicode="&#x10c;" 
d="M470 965l-114 -126h-98l-113 125l102 25l61 -66l60 67zM555 163q-3 -32 -17.5 -61.5t-38 -52t-55.5 -36t-69 -13.5h-140q-38 0 -70.5 14t-57 38.5t-38.5 57t-14 70.5v430q0 37 14 70t38.5 57.5t57 38.5t70.5 14h140q37 0 69 -13.5t55.5 -36t38 -52.5t17.5 -63l-140 -35
q0 26 -18 45t-52 19h-80q-70 0 -70 -70v-378q0 -70 70 -70h80q33 0 51.5 16.5t18.5 45.5z" />
    <glyph glyph-name="ccaron" unicode="&#x10d;" horiz-adv-x="515" 
d="M424 766l-114 -126h-98l-113 125l102 25l60 -66l61 67zM465 138q0 -30 -11 -55.5t-29.5 -43.5t-43.5 -28.5t-55 -10.5h-137q-30 0 -55.5 10.5t-44 29t-29 44.5t-10.5 56v310q0 30 10.5 56t29 44.5t44 29t55.5 10.5h137q30 0 55.5 -10.5t44 -28.5t29 -43.5t10.5 -55.5
l-130 -33q-3 45 -50 45h-55q-50 0 -50 -51v-236q0 -51 50 -51h55q47 0 50 45z" />
    <glyph glyph-name="Ecaron" unicode="&#x11a;" 
d="M474 966l-114 -126h-98l-113 125l102 25l61 -66l60 67zM555 0h-500v790h500v-136h-360v-191h260v-136h-260v-191h360v-136z" />
    <glyph glyph-name="ecaron" unicode="&#x11b;" horiz-adv-x="508" 
d="M421 766l-114 -126h-98l-113 125l102 25l60 -66l61 67zM458 228h-278v-51q0 -51 51 -51h49q26 0 37 11.5t13 33.5l123 -31v-9q0 -61 -39.5 -96t-100.5 -35h-122q-30 0 -56 10.5t-45 29t-29.5 44.5t-10.5 56v310q0 30 10.5 55.5t29 44.5t44 29.5t55.5 10.5h129
q30 0 56 -10.5t44.5 -29.5t29 -45t10.5 -56v-221zM328 414q1 50 -50 50h-47q-27 0 -39 -12t-12 -38v-59h148v59z" />
    <glyph glyph-name="Ncaron" unicode="&#x147;" 
d="M469 965l-114 -126h-98l-113 125l102 25l61 -66l60 67zM555 0h-131l-229 460v-460h-140v790h132l228 -462v462h140v-790z" />
    <glyph glyph-name="ncaron" unicode="&#x148;" horiz-adv-x="503" 
d="M420 766l-114 -126h-98l-113 125l102 25l60 -66l61 67zM453 0h-130v413q0 51 -50 51h-43q-50 0 -50 -51v-413h-130v590h130v-36q12 15 37 25.5t48 10.5h49q30 0 55.5 -10.5t44 -29.5t29 -45t10.5 -56v-449z" />
    <glyph glyph-name="Rcaron" unicode="&#x158;" 
d="M465 965l-114 -126h-98l-113 125l102 25l61 -66l60 67zM555 0h-150l-120 327h-90v-327h-140v790h320q37 0 70 -14t57.5 -38.5t38.5 -57.5t14 -70v-102q0 -75 -32.5 -120t-89.5 -59zM415 533v51q0 34 -18.5 52t-51.5 18h-150v-191h150q70 0 70 70z" />
    <glyph glyph-name="rcaron" unicode="&#x159;" horiz-adv-x="361" 
d="M364 766l-114 -126h-98l-113 125l102 25l60 -66l61 67zM351 576l-30 -122q-10 6 -19 8t-30 2h-42q-50 -1 -50 -51v-413h-130v590h130v-52q12 30 37.5 42t45.5 12h32q15 0 30.5 -4t25.5 -12z" />
    <glyph glyph-name="Tcaron" unicode="&#x164;" 
d="M468 965l-114 -126h-98l-113 125l102 25l61 -66l60 67zM555 654h-180v-654h-140v654h-180v136h500v-136z" />
    <glyph glyph-name="tcaron" unicode="&#x165;" horiz-adv-x="421" 
d="M451 845l-88 -185l-63 21l46 201zM333 0h-128q-30 0 -55.5 10.5t-44.5 29.5t-29.5 45t-10.5 56v318h-50v126h50v121l130 33v-154h128v-126h-128v-283q0 -50 50 -50h88v-126z" />
    <glyph glyph-name="Dcaron" unicode="&#x10e;" 
d="M460 965l-114 -126h-98l-113 125l102 25l61 -66l60 67zM555 180q0 -38 -14 -70.5t-38.5 -57t-57.5 -38.5t-70 -14h-320v136h40v518h-40v136h320q37 0 70 -14t57.5 -38.5t38.5 -57.5t14 -70v-430zM415 206v378q0 70 -70 70h-110v-518h110q70 0 70 70z" />
    <glyph glyph-name="dcaron" unicode="&#x10f;" horiz-adv-x="683" 
d="M683 749l-98 -206l-69 24l51 223zM473 0h-104l-15 35q-27 -35 -84 -35h-81q-30 0 -55.5 10.5t-44 29t-29 44.5t-10.5 56v310q0 30 10.5 56t29 44.5t44 29t55.5 10.5h69q26 0 48 -8.5t37 -27.5v236h130v-790zM343 177v236q0 51 -50 51h-63q-50 0 -50 -51v-236
q0 -51 50 -51h63q50 0 50 51z" />
    <glyph glyph-name="Gcommacedilla" unicode="&#x122;" 
d="M555 180q0 -38 -14 -70.5t-38.5 -57t-57.5 -38.5t-70 -14h-140q-38 0 -70.5 14t-57 38.5t-38.5 57t-14 70.5v430q0 37 14 70t38.5 57.5t57 38.5t70.5 14h140q37 0 68 -12.5t54.5 -34.5t38 -51.5t19.5 -63.5l-140 -35q0 24 -18 42.5t-52 18.5h-80q-70 0 -70 -70v-378
q0 -70 70 -70h80q70 0 70 70v75h-100v136h240v-237zM386 -85l-98 -206l-70 24l51 223z" />
    <glyph glyph-name="gcommacedilla" unicode="&#x123;" horiz-adv-x="523" 
d="M369 855l-51 -222l-117 41l98 206zM473 -61q0 -30 -10.5 -55.5t-29 -44t-44.5 -29t-56 -10.5h-128q-61 0 -100.5 35t-39.5 96v9l123 31q2 -22 13 -33.5t38 -11.5h54q50 0 50 51v87q-12 -15 -37 -25.5t-48 -10.5h-69q-30 0 -55.5 10.5t-44 29t-29 44.5t-10.5 56v283
q0 30 10.5 55.5t29 44t44 29t55.5 10.5h79q26 0 49.5 -9.5t35.5 -23.5l15 33h105v-651zM343 205v208q0 51 -50 51h-63q-50 0 -50 -51v-208q0 -50 50 -50h63q50 0 50 50z" />
    <glyph glyph-name="Kcommacedilla" unicode="&#x136;" 
d="M555 0h-140v29q0 14 -3.5 28.5t-11.5 28.5l-143 243l-62 -79v-250h-140v790h140v-338l195 243q16 20 20.5 33.5t4.5 34.5v27h140v-43q0 -29 -9.5 -55.5t-33.5 -56.5l-158 -196l174 -296q17 -28 22 -47t5 -43v-53zM376 -85l-98 -206l-70 24l51 223z" />
    <glyph glyph-name="kcommacedilla" unicode="&#x137;" horiz-adv-x="523" 
d="M473 0l-132 -1v23q0 23 -13 43l-115 185l-33 -38v-212h-130v790h130v-418l138 150q14 14 18.5 23t4.5 25v20h132v-33q0 -22 -8.5 -41.5t-28.5 -42.5l-127 -137l140 -229q14 -22 19 -37t5 -33v-37zM331 -85l-98 -206l-70 24l51 223z" />
    <glyph glyph-name="Lcommacedilla" unicode="&#x13b;" 
d="M555 0h-500v790h140v-654h360v-136zM371 -85l-98 -206l-70 24l51 223z" />
    <glyph glyph-name="lcommacedilla" unicode="&#x13c;" horiz-adv-x="230" 
d="M180 0h-130v790h130v-790zM192 -85l-98 -206l-70 24l51 223z" />
    <glyph glyph-name="Ncommacedilla" unicode="&#x145;" 
d="M555 0h-131l-229 460v-460h-140v790h132l228 -462v462h140v-790zM377 -85l-98 -206l-70 24l51 223z" />
    <glyph glyph-name="ncommacedilla" unicode="&#x146;" horiz-adv-x="503" 
d="M453 0h-130v413q0 51 -50 51h-43q-50 0 -50 -51v-413h-130v590h130v-36q12 15 37 25.5t48 10.5h49q30 0 55.5 -10.5t44 -29.5t29 -45t10.5 -56v-449zM321 -85l-98 -206l-70 24l51 223z" />
    <glyph glyph-name="Rcommacedilla" unicode="&#x156;" 
d="M555 0h-150l-120 327h-90v-327h-140v790h320q37 0 70 -14t57.5 -38.5t38.5 -57.5t14 -70v-102q0 -75 -32.5 -120t-89.5 -59zM376 -85l-98 -206l-70 24l51 223zM415 533v51q0 34 -18.5 52t-51.5 18h-150v-191h150q70 0 70 70z" />
    <glyph glyph-name="rcommacedilla" unicode="&#x157;" horiz-adv-x="361" 
d="M351 576l-30 -122q-10 6 -19 8t-30 2h-42q-50 -1 -50 -51v-413h-130v590h130v-52q12 30 37.5 42t45.5 12h32q15 0 30.5 -4t25.5 -12zM263 -85l-98 -206l-70 24l51 223z" />
    <glyph glyph-name="Scommacedilla" unicode="&#x218;" 
d="M555 180q0 -38 -14 -70.5t-38.5 -57t-57.5 -38.5t-70 -14h-140q-38 0 -69 13t-54.5 35.5t-38 52.5t-18.5 65l140 35q2 -31 19 -48t51 -17h80q70 0 70 70v27q0 26 -9.5 39.5t-35.5 24.5l-182 73q-26 10 -49.5 25.5t-42.5 38t-30 51.5t-11 66v59q0 37 14 70t38.5 57.5
t57 38.5t70.5 14h140q38 0 69.5 -13.5t55 -36.5t38 -52.5t17.5 -61.5l-140 -35q-2 29 -19 46t-51 17h-80q-70 0 -70 -70v-10q0 -34 7.5 -50.5t33.5 -26.5l188 -75q58 -23 94.5 -63t36.5 -102v-77zM385 -85l-98 -206l-70 24l51 223z" />
    <glyph glyph-name="scommacedilla" unicode="&#x219;" horiz-adv-x="515" 
d="M465 140q0 -30 -10.5 -56t-29 -44.5t-44 -29t-55.5 -10.5h-136q-30 0 -55.5 10.5t-44 28.5t-29.5 43.5t-11 55.5l130 33q2 -23 13.5 -34t37.5 -11h54q50 0 50 46v4q0 11 -7 19.5t-25 15.5l-147 54q-18 7 -37 19.5t-34.5 30.5t-25 42t-9.5 53v40q0 30 10.5 55.5t29 44.5
t44 29.5t55.5 10.5h137q30 0 55.5 -10.5t44 -28.5t29 -43.5t10.5 -55.5l-130 -33q-3 45 -50 45h-55q-26 0 -38 -11t-12 -30v-6q0 -14 5.5 -22.5t22.5 -14.5l155 -57q20 -7 38.5 -19t32.5 -30t22.5 -41.5t8.5 -53.5v-39zM342 -85l-98 -206l-70 24l51 223z" />
    <glyph glyph-name="Tcommacedilla" unicode="&#x21a;" 
d="M555 654h-180v-654h-140v654h-180v136h500v-136zM366 -85l-98 -206l-70 24l51 223z" />
    <glyph glyph-name="tcommacedilla" unicode="&#x21b;" horiz-adv-x="358" 
d="M333 0h-128q-30 0 -55.5 10.5t-44.5 29.5t-29.5 45t-10.5 56v318h-50v126h50v121l130 33v-154h128v-126h-128v-283q0 -50 50 -50h88v-126zM256 -85l-98 -206l-70 24l51 223z" />
    <glyph glyph-name="Scedilla" unicode="&#x15e;" 
d="M555 180q0 -38 -14 -70.5t-38.5 -57t-57.5 -38.5t-70 -14h-33l-7 -35q17 0 30.5 -3.5t23.5 -12.5t15 -25t5 -42q0 -48 -22.5 -65t-73.5 -17h-86v55h32q10 0 19 1q36 0 36 32t-38 32h-35l14 80h-20q-38 0 -69 13t-54.5 35.5t-38 52.5t-18.5 65l140 35q2 -31 19 -48t51 -17
h80q70 0 70 70v27q0 26 -9.5 39.5t-35.5 24.5l-182 73q-26 10 -49.5 25.5t-42.5 38t-30 51.5t-11 66v59q0 37 14 70t38.5 57.5t57 38.5t70.5 14h140q38 0 69.5 -13.5t55 -36.5t38 -52.5t17.5 -61.5l-140 -35q-2 29 -19 46t-51 17h-80q-70 0 -70 -70v-10q0 -34 7.5 -50.5
t33.5 -26.5l188 -75q58 -23 94.5 -63t36.5 -102v-77z" />
    <glyph glyph-name="scedilla" unicode="&#x15f;" horiz-adv-x="515" 
d="M465 140q0 -30 -10.5 -56t-29 -44.5t-44 -29t-55.5 -10.5h-30l-7 -35q17 0 30.5 -3.5t23.5 -12.5t15 -25t5 -42q0 -48 -22.5 -65t-73.5 -17h-86v55h32q10 0 19 1q36 0 36 32t-38 32h-35l14 80h-19q-30 0 -55.5 10.5t-44 28.5t-29.5 43.5t-11 55.5l130 33q2 -23 13.5 -34
t37.5 -11h54q50 0 50 46v4q0 11 -7 19.5t-25 15.5l-147 54q-18 7 -37 19.5t-34.5 30.5t-25 42t-9.5 53v40q0 30 10.5 55.5t29 44.5t44 29.5t55.5 10.5h137q30 0 55.5 -10.5t44 -28.5t29 -43.5t10.5 -55.5l-130 -33q-3 45 -50 45h-55q-26 0 -38 -11t-12 -30v-6
q0 -14 5.5 -22.5t22.5 -14.5l155 -57q20 -7 38.5 -19t32.5 -30t22.5 -41.5t8.5 -53.5v-39z" />
    <glyph glyph-name="Tcedilla" unicode="&#x162;" 
d="M555 654h-180v-654h-25l-7 -35q17 0 30.5 -3.5t23.5 -12.5t15 -25t5 -42q0 -48 -22.5 -65t-73.5 -17h-86v55h32q10 0 19 1q36 0 36 32t-38 32h-35l14 80h-28v654h-180v136h500v-136z" />
    <glyph glyph-name="tcedilla" unicode="&#x163;" horiz-adv-x="358" 
d="M125 24q-28 18 -44 48.5t-16 68.5v318h-50v126h50v121l130 33v-154h128v-126h-128v-283q0 -50 50 -50h88v-126h-124l-7 -35q17 0 30.5 -3.5t23.5 -12.5t15 -25t5 -42q0 -51 -23 -66.5t-73 -15.5h-86v55l51 1q20 0 28 8t8 23t-8.5 24t-27.5 9h-37z" />
    <glyph glyph-name="Lcaron" unicode="&#x13d;" 
d="M453 758l-98 -206l-70 24l51 222zM555 0h-500v790h140v-654h360v-136z" />
    <glyph glyph-name="lcaron" unicode="&#x13e;" horiz-adv-x="374" 
d="M394 760l-98 -206l-70 24l51 223zM180 0h-130v790h130v-790z" />
    <glyph glyph-name="napostrophe" unicode="&#x149;" horiz-adv-x="598" 
d="M168 760l-98 -206l-70 24l51 223zM548 0h-130v413q0 51 -50 51h-43q-50 0 -50 -51v-413h-130v590h130v-36q12 15 37 25.5t48 10.5h49q30 0 55.5 -10.5t44 -29.5t29 -45t10.5 -56v-449z" />
    <glyph glyph-name="Aogonek" unicode="&#x104;" 
d="M555 0h-43q-32 -24 -45 -50.5t-13 -45.5q0 -20 12 -31t36 -11q26 0 53 14l-20 -78q-20 -12 -42.5 -19t-47.5 -7q-45 0 -74 26.5t-29 71.5q0 38 24.5 72.5t62.5 57.5h-19l-26 131h-158l-26 -131h-145l182 790h136zM358 267l-43 223q-1 4 -3 10t-7 6t-7 -6t-3 -10l-43 -223
h106z" />
    <glyph glyph-name="aogonek" unicode="&#x105;" horiz-adv-x="498" 
d="M448 0h-43q-32 -24 -45 -50.5t-13 -45.5q0 -20 12 -31t36 -11q26 0 53 14l-20 -78q-20 -12 -42.5 -19t-47.5 -7q-45 0 -74 26.5t-29 71.5q0 42 29.5 79t74.5 60l-11 26q-10 -15 -30.5 -25t-44.5 -10h-73q-30 0 -55.5 10.5t-44.5 29.5t-29.5 45t-10.5 56v80q0 30 10.5 56
t29.5 44.5t44.5 29.5t55.5 11h138v51q0 51 -50 51h-49q-27 0 -38 -11.5t-13 -33.5l-123 31v9q0 61 39.5 96t101.5 35h122q30 0 55.5 -10.5t44.5 -29t29.5 -44.5t10.5 -56v-450zM318 176v59h-98q-26 0 -38 -12t-12 -39v-8q0 -50 50 -50h48q50 0 50 50z" />
    <glyph glyph-name="Eogonek" unicode="&#x118;" 
d="M555 0h-43q-32 -24 -45 -50.5t-13 -45.5q0 -20 12 -31t36 -11q26 0 53 14l-20 -78q-20 -12 -42.5 -19t-47.5 -7q-45 0 -74 26.5t-29 71.5q0 38 24.5 72.5t62.5 57.5h-374v790h500v-136h-360v-191h260v-136h-260v-191h360v-136z" />
    <glyph glyph-name="eogonek" unicode="&#x119;" horiz-adv-x="619" 
d="M458 228h-278v-51q0 -51 51 -51h49q26 0 37 11.5t13 33.5l123 -31v-9q0 -47 -23.5 -78t-62.5 -45q-39 -25 -54.5 -54.5t-15.5 -49.5t12 -31t36 -11q26 0 53 14l-20 -78q-20 -12 -42.5 -19t-47.5 -7q-45 0 -74 26.5t-29 71.5q0 38 24.5 72.5t62.5 57.5h-81q-30 0 -56 10.5
t-45 29t-29.5 44.5t-10.5 56v310q0 30 10.5 55.5t29 44.5t44 29.5t55.5 10.5h129q30 0 56 -10.5t44.5 -29.5t29 -45t10.5 -56v-221zM328 414q1 50 -50 50h-47q-27 0 -39 -12t-12 -38v-59h148v59z" />
    <glyph glyph-name="Iogonek" unicode="&#x12e;" horiz-adv-x="250" 
d="M224 -124l-20 -78q-20 -12 -42.5 -19t-47.5 -7q-45 0 -74 26.5t-29 71.5q0 38 24.5 72.5t62.5 57.5h-43v790h140v-790h-14q-32 -24 -45 -50.5t-13 -45.5q0 -20 12 -31t36 -11q26 0 53 14z" />
    <glyph glyph-name="iogonek" unicode="&#x12f;" horiz-adv-x="230" 
d="M180 663h-130v126h130v-126zM209 -124l-20 -78q-20 -12 -42.5 -19t-47.5 -7q-45 0 -74 26.5t-29 71.5q0 38 24.5 72.5t62.5 57.5h-33v590h130v-590h-14q-32 -24 -45 -50.5t-13 -45.5q0 -20 12 -31t36 -11q26 0 53 14z" />
    <glyph glyph-name="Uogonek" unicode="&#x172;" 
d="M555 180q0 -38 -14 -70.5t-38.5 -57t-57.5 -38.5t-70 -14h-3q-32 -24 -45 -50.5t-13 -45.5q0 -20 12 -31t36 -11q26 0 53 14l-20 -78q-20 -12 -42.5 -19t-47.5 -7q-45 0 -74 26.5t-29 71.5q0 38 24.5 72.5t62.5 57.5h-54q-38 0 -71 14t-57 38.5t-38 57t-14 70.5v610h140
v-584q0 -70 70 -70h80q70 0 70 70v584h140v-610z" />
    <glyph glyph-name="uogonek" unicode="&#x173;" horiz-adv-x="503" 
d="M453 0h-45q-32 -24 -45 -50.5t-13 -45.5q0 -20 12 -31t36 -11q26 0 53 14l-20 -78q-20 -12 -42.5 -19t-47.5 -7q-45 0 -74 26.5t-29 71.5q0 38 24.5 72.5t62.5 57.5h-2v36q-12 -15 -37 -26t-48 -11h-49q-30 0 -55.5 11t-44 30t-29 45t-10.5 56v449h130v-414q0 -50 50 -50
h43q50 0 50 50v414h130v-590z" />
    <glyph glyph-name="Amacron" unicode="&#x100;" 
d="M456 841h-306v96h306v-96zM555 0h-145l-26 131h-158l-26 -131h-145l182 790h136zM358 267l-43 223q-1 4 -3 10t-7 6t-7 -6t-3 -10l-43 -223h106z" />
    <glyph glyph-name="amacron" unicode="&#x101;" horiz-adv-x="498" 
d="M401 645h-306v96h306v-96zM448 0h-105l-15 35q-10 -15 -30.5 -25t-44.5 -10h-73q-30 0 -55.5 10.5t-44.5 29.5t-29.5 45t-10.5 56v80q0 30 10.5 56t29.5 44.5t44.5 29.5t55.5 11h138v51q0 51 -50 51h-49q-27 0 -38 -11.5t-13 -33.5l-123 31v9q0 61 39.5 96t101.5 35h122
q30 0 55.5 -10.5t44.5 -29t29.5 -44.5t10.5 -56v-450zM318 176v59h-98q-26 0 -38 -12t-12 -39v-8q0 -50 50 -50h48q50 0 50 50z" />
    <glyph glyph-name="Emacron" unicode="&#x112;" 
d="M455 841h-306v96h306v-96zM555 0h-500v790h500v-136h-360v-191h260v-136h-260v-191h360v-136z" />
    <glyph glyph-name="emacron" unicode="&#x113;" horiz-adv-x="508" 
d="M407 641h-306v96h306v-96zM458 228h-278v-51q0 -51 51 -51h49q26 0 37 11.5t13 33.5l123 -31v-9q0 -61 -39.5 -96t-100.5 -35h-122q-30 0 -56 10.5t-45 29t-29.5 44.5t-10.5 56v310q0 30 10.5 55.5t29 44.5t44 29.5t55.5 10.5h129q30 0 56 -10.5t44.5 -29.5t29 -45
t10.5 -56v-221zM328 414q1 50 -50 50h-47q-27 0 -39 -12t-12 -38v-59h148v59z" />
    <glyph glyph-name="Imacron" unicode="&#x12a;" horiz-adv-x="250" 
d="M278 841h-306v96h306v-96zM195 0h-140v790h140v-790z" />
    <glyph glyph-name="imacron" unicode="&#x12b;" horiz-adv-x="230" 
d="M268 640h-306v96h306v-96zM180 0h-130v590h130v-590z" />
    <glyph glyph-name="Omacron" unicode="&#x14c;" 
d="M458 840h-306v96h306v-96zM555 180q0 -38 -14 -70.5t-38.5 -57t-57.5 -38.5t-70 -14h-140q-38 0 -70.5 14t-57 38t-38.5 57t-14 71v430q0 37 14 70t38.5 57.5t57 38.5t70.5 14h140q37 0 70 -14t57.5 -38.5t38.5 -57.5t14 -70v-430zM415 206v378q0 70 -70 70h-80
q-70 0 -70 -70v-378q0 -70 70 -70h80q34 0 52 18.5t18 51.5z" />
    <glyph glyph-name="omacron" unicode="&#x14d;" horiz-adv-x="515" 
d="M412 645h-306v96h306v-96zM465 140q0 -30 -10.5 -56t-29.5 -44.5t-44.5 -29t-55.5 -10.5h-135q-30 0 -55.5 10.5t-44.5 29t-29.5 44.5t-10.5 56v310q0 30 10.5 56t29.5 44.5t44.5 29t55.5 10.5h135q30 0 55.5 -10.5t44.5 -29.5t29.5 -45t10.5 -56v-309zM335 177v236
q0 51 -50 51h-55q-50 0 -50 -51v-236q0 -51 50 -51h55q50 0 50 51z" />
    <glyph glyph-name="Umacron" unicode="&#x16a;" 
d="M455 839h-306v96h306v-96zM555 180q0 -38 -14 -70.5t-38.5 -57t-57.5 -38.5t-70 -14h-140q-38 0 -71 14t-57 38.5t-38 57t-14 70.5v610h140v-584q0 -70 70 -70h80q70 0 70 70v584h140v-610z" />
    <glyph glyph-name="umacron" unicode="&#x16b;" horiz-adv-x="503" 
d="M405 640h-306v96h306v-96zM453 0h-130v36q-12 -15 -37 -26t-48 -11h-49q-30 0 -55.5 11t-44 30t-29 45t-10.5 56v449h130v-414q0 -50 50 -50h43q50 0 50 50v414h130v-590z" />
    <glyph glyph-name="Dcroat" unicode="&#x110;" 
d="M555 180q0 -38 -14 -70.5t-38.5 -57t-57.5 -38.5t-70 -14h-320v136h40v191h-40v136h40v191h-40v136h320q37 0 70 -14t57.5 -38.5t38.5 -57.5t14 -70v-430zM415 206v378q0 70 -70 70h-110v-191h80v-136h-80v-191h110q70 0 70 70z" />
    <glyph glyph-name="dcroat" unicode="&#x111;" horiz-adv-x="523" 
d="M513 640h-40v-640h-104l-15 35q-27 -35 -84 -35h-81q-30 0 -55.5 10.5t-44 29t-29 44.5t-10.5 56v310q0 30 10.5 56t29 44.5t44 29t55.5 10.5h69q26 0 48 -8.5t37 -27.5v86h-136v96h136v54h130v-54h40v-96zM343 177v236q0 51 -50 51h-63q-50 0 -50 -51v-236q0 -51 50 -51
h63q50 0 50 51z" />
    <glyph glyph-name="kgreenlandic" unicode="&#x138;" horiz-adv-x="523" 
d="M473 0l-132 -1v23q0 23 -13 43l-115 185l-33 -38v-212h-130v590h130v-218l138 150q14 14 18.5 23t4.5 25v20h132v-33q0 -22 -8.5 -41.5t-28.5 -42.5l-127 -137l140 -229q14 -22 19 -37t5 -33v-37z" />
    <glyph glyph-name="Ccircumflex" unicode="&#x108;" 
d="M469 853l-102 -25l-61 66l-60 -67l-102 25l113 126h98zM555 163q-3 -32 -17.5 -61.5t-38 -52t-55.5 -36t-69 -13.5h-140q-38 0 -70.5 14t-57 38.5t-38.5 57t-14 70.5v430q0 37 14 70t38.5 57.5t57 38.5t70.5 14h140q37 0 69 -13.5t55.5 -36t38 -52.5t17.5 -63l-140 -35
q0 26 -18 45t-52 19h-80q-70 0 -70 -70v-378q0 -70 70 -70h80q33 0 51.5 16.5t18.5 45.5z" />
    <glyph glyph-name="ccircumflex" unicode="&#x109;" horiz-adv-x="515" 
d="M422 655l-102 -25l-60 66l-61 -67l-102 25l114 126h98zM465 138q0 -30 -11 -55.5t-29.5 -43.5t-43.5 -28.5t-55 -10.5h-137q-30 0 -55.5 10.5t-44 29t-29 44.5t-10.5 56v310q0 30 10.5 56t29 44.5t44 29t55.5 10.5h137q30 0 55.5 -10.5t44 -28.5t29 -43.5t10.5 -55.5
l-130 -33q-3 45 -50 45h-55q-50 0 -50 -51v-236q0 -51 50 -51h55q47 0 50 45z" />
    <glyph glyph-name="Gcircumflex" unicode="&#x11c;" 
d="M468 856l-102 -25l-61 66l-60 -67l-102 25l113 126h98zM555 180q0 -38 -14 -70.5t-38.5 -57t-57.5 -38.5t-70 -14h-140q-38 0 -70.5 14t-57 38.5t-38.5 57t-14 70.5v430q0 37 14 70t38.5 57.5t57 38.5t70.5 14h140q37 0 68 -12.5t54.5 -34.5t38 -51.5t19.5 -63.5
l-140 -35q0 24 -18 42.5t-52 18.5h-80q-70 0 -70 -70v-378q0 -70 70 -70h80q70 0 70 70v75h-100v136h240v-237z" />
    <glyph glyph-name="gcircumflex" unicode="&#x11d;" horiz-adv-x="523" 
d="M430 655l-102 -25l-60 66l-61 -67l-102 25l114 126h98zM473 -61q0 -30 -10.5 -55.5t-29 -44t-44.5 -29t-56 -10.5h-128q-61 0 -100.5 35t-39.5 96v9l123 31q2 -22 13 -33.5t38 -11.5h54q50 0 50 51v87q-12 -15 -37 -25.5t-48 -10.5h-69q-30 0 -55.5 10.5t-44 29t-29 44.5
t-10.5 56v283q0 30 10.5 55.5t29 44t44 29t55.5 10.5h79q26 0 49.5 -9.5t35.5 -23.5l15 33h105v-651zM343 205v208q0 51 -50 51h-63q-50 0 -50 -51v-208q0 -50 50 -50h63q50 0 50 50z" />
    <glyph glyph-name="Hcircumflex" unicode="&#x124;" 
d="M470 854l-102 -25l-61 66l-60 -67l-102 25l113 126h98zM555 0h-140v327h-220v-327h-140v790h140v-327h220v327h140v-790z" />
    <glyph glyph-name="hcircumflex" unicode="&#x125;" horiz-adv-x="523" 
d="M428 855l-102 -25l-61 66l-60 -67l-102 25l113 126h98zM473 0h-130v413q0 51 -50 51h-63q-50 0 -50 -51v-413h-130v790h130v-236q12 15 37 25.5t48 10.5h68q30 0 55.5 -10.5t44.5 -29.5t29.5 -45t10.5 -56v-449z" />
    <glyph glyph-name="Jcircumflex" unicode="&#x134;" 
d="M646 853l-102 -25l-61 66l-60 -67l-102 25l113 126h98zM555 180q0 -38 -14 -70.5t-38.5 -57t-57.5 -38.5t-70 -14h-140q-36 0 -67.5 12.5t-55 34.5t-38.5 51.5t-19 64.5l140 35q0 -26 18 -44t52 -18h80q70 0 70 70v584h140v-610z" />
    <glyph glyph-name="jcircumflex" unicode="&#x135;" horiz-adv-x="230" 
d="M278 658l-102 -25l-61 66l-60 -67l-102 25l114 126h98zM180 -74q0 -61 -35 -93.5t-95 -32.5h-90v126h40q50 0 50 50v614h130v-664z" />
    <glyph glyph-name="Scircumflex" unicode="&#x15c;" 
d="M468 853l-102 -25l-61 66l-60 -67l-102 25l113 126h98zM555 180q0 -38 -14 -70.5t-38.5 -57t-57.5 -38.5t-70 -14h-140q-38 0 -69 13t-54.5 35.5t-38 52.5t-18.5 65l140 35q2 -31 19 -48t51 -17h80q70 0 70 70v27q0 26 -9.5 39.5t-35.5 24.5l-182 73q-26 10 -49.5 25.5
t-42.5 38t-30 51.5t-11 66v59q0 37 14 70t38.5 57.5t57 38.5t70.5 14h140q38 0 69.5 -13.5t55 -36.5t38 -52.5t17.5 -61.5l-140 -35q-2 29 -19 46t-51 17h-80q-70 0 -70 -70v-10q0 -34 7.5 -50.5t33.5 -26.5l188 -75q58 -23 94.5 -63t36.5 -102v-77z" />
    <glyph glyph-name="scircumflex" unicode="&#x15d;" horiz-adv-x="515" 
d="M418 655l-102 -25l-60 66l-61 -67l-102 25l114 126h98zM465 140q0 -30 -10.5 -56t-29 -44.5t-44 -29t-55.5 -10.5h-136q-30 0 -55.5 10.5t-44 28.5t-29.5 43.5t-11 55.5l130 33q2 -23 13.5 -34t37.5 -11h54q50 0 50 46v4q0 11 -7 19.5t-25 15.5l-147 54q-18 7 -37 19.5
t-34.5 30.5t-25 42t-9.5 53v40q0 30 10.5 55.5t29 44.5t44 29.5t55.5 10.5h137q30 0 55.5 -10.5t44 -28.5t29 -43.5t10.5 -55.5l-130 -33q-3 45 -50 45h-55q-26 0 -38 -11t-12 -30v-6q0 -14 5.5 -22.5t22.5 -14.5l155 -57q20 -7 38.5 -19t32.5 -30t22.5 -41.5t8.5 -53.5v-39
z" />
    <glyph glyph-name="Wcircumflex" unicode="&#x174;" 
d="M469 853l-102 -25l-61 66l-60 -67l-102 25l113 126h98zM556 790l-44 -790h-132l-64 237q-1 4 -3 7.5t-7 3.5t-7 -3.5t-3 -7.5l-65 -237h-131l-45 790h141l22 -385q0 -3 1 -7t5 -4t6 4t3 7l62 229q1 4 3.5 7.5t7.5 3.5t7.5 -3.5t3.5 -7.5l61 -229q1 -3 3 -7t6 -4t5 4t1 7
l22 385h141z" />
    <glyph glyph-name="wcircumflex" unicode="&#x175;" horiz-adv-x="575" 
d="M451 655l-102 -25l-60 66l-61 -67l-102 25l114 126h98zM555 590l-95 -590h-109l-54 182q-4 11 -9 11t-9 -11l-54 -182h-109l-96 590h133l43 -301q1 -3 3 -7.5t6 -4.5q5 0 6.5 4.5l2.5 7.5l63 188q2 8 5 10t6 2t6 -2t5 -10l62 -188q1 -3 3 -7.5t6 -4.5q5 0 7 4.5t2 7.5
l43 301h133z" />
    <glyph glyph-name="Ycircumflex" unicode="&#x176;" 
d="M467 853l-102 -25l-61 66l-60 -67l-102 25l113 126h98zM555 742q0 -50 -25 -106l-155 -345v-291h-140v291l-155 345q-14 29 -19.5 55t-5.5 52v47h140v-31q0 -15 3 -32.5t10 -32.5l97 -226l97 226q7 16 10 33t3 32v31h140v-48z" />
    <glyph glyph-name="ycircumflex" unicode="&#x177;" horiz-adv-x="500" 
d="M409 655l-102 -25l-60 66l-61 -67l-102 25l114 126h98zM480 590l-186 -661q-9 -34 -26 -58.5t-39 -40t-48 -23t-54 -7.5h-54v126h40q52 0 67 52l6 22l-166 590h133l87 -341q1 -3 3 -7.5t6 -4.5q5 0 6.5 4.5l2.5 7.5l89 341h133z" />
    <glyph glyph-name="Uring" unicode="&#x16e;" 
d="M417 944q0 -23 -8.5 -44.5t-23.5 -37.5t-35.5 -25.5t-44.5 -9.5t-45 9.5t-36 25.5t-23.5 37t-8.5 45t8.5 45.5t23.5 37.5t36 25.5t45 9.5t44.5 -9.5t35.5 -26t23.5 -37.5t8.5 -45zM555 180q0 -38 -14 -70.5t-38.5 -57t-57.5 -38.5t-70 -14h-140q-38 0 -71 14t-57 38.5
t-38 57t-14 70.5v610h140v-584q0 -70 70 -70h80q70 0 70 70v584h140v-610zM344 945q0 17 -11.5 29.5t-28.5 12.5t-28.5 -12.5t-11.5 -29.5t11.5 -29.5t28.5 -12.5t28.5 12.5t11.5 29.5z" />
    <glyph glyph-name="uring" unicode="&#x16f;" horiz-adv-x="503" 
d="M366 747q0 -24 -8.5 -45t-23.5 -37t-35.5 -25.5t-44.5 -9.5t-45 9.5t-36 25.5t-23.5 37t-8.5 45t8.5 45t23.5 37.5t36 26t45 9.5t44.5 -9.5t35.5 -26t23.5 -37.5t8.5 -45zM453 0h-130v36q-12 -15 -37 -26t-48 -11h-49q-30 0 -55.5 11t-44 30t-29 45t-10.5 56v449h130
v-414q0 -50 50 -50h43q50 0 50 50v414h130v-590zM293 748q0 17 -11 29t-28 12t-28.5 -12t-11.5 -29t11.5 -29.5t28.5 -12.5t28 12.5t11 29.5z" />
    <glyph glyph-name="Ohungarumlaut" unicode="&#x150;" 
d="M495 962l-106 -141l-58 34l77 163zM345 962l-106 -141l-58 34l77 163zM555 180q0 -38 -14 -70.5t-38.5 -57t-57.5 -38.5t-70 -14h-140q-38 0 -70.5 14t-57 38t-38.5 57t-14 71v430q0 37 14 70t38.5 57.5t57 38.5t70.5 14h140q37 0 70 -14t57.5 -38.5t38.5 -57.5t14 -70
v-430zM415 206v378q0 70 -70 70h-80q-70 0 -70 -70v-378q0 -70 70 -70h80q34 0 52 18.5t18 51.5z" />
    <glyph glyph-name="ohungarumlaut" unicode="&#x151;" horiz-adv-x="515" 
d="M445 771l-106 -142l-57 34l76 164zM295 771l-106 -142l-57 34l76 164zM465 140q0 -30 -10.5 -56t-29.5 -44.5t-44.5 -29t-55.5 -10.5h-135q-30 0 -55.5 10.5t-44.5 29t-29.5 44.5t-10.5 56v310q0 30 10.5 56t29.5 44.5t44.5 29t55.5 10.5h135q30 0 55.5 -10.5t44.5 -29.5
t29.5 -45t10.5 -56v-309zM335 177v236q0 51 -50 51h-55q-50 0 -50 -51v-236q0 -51 50 -51h55q50 0 50 51z" />
    <glyph glyph-name="Uhungarumlaut" unicode="&#x170;" 
d="M488 962l-106 -141l-58 34l77 163zM338 962l-106 -141l-58 34l77 163zM555 180q0 -38 -14 -70.5t-38.5 -57t-57.5 -38.5t-70 -14h-140q-38 0 -71 14t-57 38.5t-38 57t-14 70.5v610h140v-584q0 -70 70 -70h80q70 0 70 70v584h140v-610z" />
    <glyph glyph-name="uhungarumlaut" unicode="&#x171;" horiz-adv-x="503" 
d="M443 771l-106 -142l-57 34l76 164zM293 771l-106 -142l-57 34l76 164zM453 0h-130v36q-12 -15 -37 -26t-48 -11h-49q-30 0 -55.5 11t-44 30t-29 45t-10.5 56v449h130v-414q0 -50 50 -50h43q50 0 50 50v414h130v-590z" />
    <glyph glyph-name="Abreve" unicode="&#x102;" 
d="M465 968q-4 -68 -46.5 -104.5t-109.5 -36.5q-69 0 -112.5 35.5t-51.5 105.5h81q10 -30 29 -40t49 -10q32 0 53.5 8.5t30.5 41.5h77zM555 0h-145l-26 131h-158l-26 -131h-145l182 790h136zM358 267l-43 223q-1 4 -3 10t-7 6t-7 -6t-3 -10l-43 -223h106z" />
    <glyph glyph-name="abreve" unicode="&#x103;" horiz-adv-x="498" 
d="M411 772q-4 -69 -46.5 -105.5t-109.5 -36.5q-69 0 -112.5 36t-51.5 106h81q11 -31 29.5 -41t49.5 -10t52.5 8.5t30.5 42.5h77zM448 0h-105l-15 35q-10 -15 -30.5 -25t-44.5 -10h-73q-30 0 -55.5 10.5t-44.5 29.5t-29.5 45t-10.5 56v80q0 30 10.5 56t29.5 44.5t44.5 29.5
t55.5 11h138v51q0 51 -50 51h-49q-27 0 -38 -11.5t-13 -33.5l-123 31v9q0 61 39.5 96t101.5 35h122q30 0 55.5 -10.5t44.5 -29t29.5 -44.5t10.5 -56v-450zM318 176v59h-98q-26 0 -38 -12t-12 -39v-8q0 -50 50 -50h48q50 0 50 50z" />
    <glyph glyph-name="Ebreve" unicode="&#x114;" 
d="M469 968q-4 -68 -46.5 -104.5t-109.5 -36.5q-69 0 -112.5 35.5t-51.5 105.5h81q10 -30 29 -40t49 -10q32 0 53.5 8.5t30.5 41.5h77zM555 0h-500v790h500v-136h-360v-191h260v-136h-260v-191h360v-136z" />
    <glyph glyph-name="ebreve" unicode="&#x115;" horiz-adv-x="508" 
d="M419 772q-4 -69 -46.5 -105.5t-109.5 -36.5q-69 0 -112.5 36t-51.5 106h81q11 -31 29.5 -41t49.5 -10t52.5 8.5t30.5 42.5h77zM458 228h-278v-51q0 -51 51 -51h49q26 0 37 11.5t13 33.5l123 -31v-9q0 -61 -39.5 -96t-100.5 -35h-122q-30 0 -56 10.5t-45 29t-29.5 44.5
t-10.5 56v310q0 30 10.5 55.5t29 44.5t44 29.5t55.5 10.5h129q30 0 56 -10.5t44.5 -29.5t29 -45t10.5 -56v-221zM328 414q1 50 -50 50h-47q-27 0 -39 -12t-12 -38v-59h148v59z" />
    <glyph glyph-name="Gbreve" unicode="&#x11e;" 
d="M459 968q-4 -68 -46.5 -104.5t-109.5 -36.5q-69 0 -112.5 35.5t-51.5 105.5h81q10 -30 29 -40t49 -10q32 0 53.5 8.5t30.5 41.5h77zM555 180q0 -38 -14 -70.5t-38.5 -57t-57.5 -38.5t-70 -14h-140q-38 0 -70.5 14t-57 38.5t-38.5 57t-14 70.5v430q0 37 14 70t38.5 57.5
t57 38.5t70.5 14h140q37 0 68 -12.5t54.5 -34.5t38 -51.5t19.5 -63.5l-140 -35q0 24 -18 42.5t-52 18.5h-80q-70 0 -70 -70v-378q0 -70 70 -70h80q70 0 70 70v75h-100v136h240v-237z" />
    <glyph glyph-name="gbreve" unicode="&#x11f;" horiz-adv-x="523" 
d="M427 772q-4 -69 -46.5 -105.5t-109.5 -36.5q-69 0 -112.5 36t-51.5 106h81q11 -31 29.5 -41t49.5 -10t52.5 8.5t30.5 42.5h77zM473 -61q0 -30 -10.5 -55.5t-29 -44t-44.5 -29t-56 -10.5h-128q-61 0 -100.5 35t-39.5 96v9l123 31q2 -22 13 -33.5t38 -11.5h54q50 0 50 51
v87q-12 -15 -37 -25.5t-48 -10.5h-69q-30 0 -55.5 10.5t-44 29t-29 44.5t-10.5 56v283q0 30 10.5 55.5t29 44t44 29t55.5 10.5h79q26 0 49.5 -9.5t35.5 -23.5l15 33h105v-651zM343 205v208q0 51 -50 51h-63q-50 0 -50 -51v-208q0 -50 50 -50h63q50 0 50 50z" />
    <glyph glyph-name="Ibreve" unicode="&#x12c;" horiz-adv-x="250" 
d="M285 968q-4 -68 -46.5 -104.5t-109.5 -36.5q-69 0 -112.5 35.5t-51.5 105.5h81q10 -30 29 -40t49 -10q32 0 53.5 8.5t30.5 41.5h77zM195 0h-140v790h140v-790z" />
    <glyph glyph-name="ibreve" unicode="&#x12d;" horiz-adv-x="230" 
d="M274 772q-4 -69 -46.5 -105.5t-109.5 -36.5q-69 0 -112.5 36t-51.5 106h81q11 -31 29.5 -41t49.5 -10t52.5 8.5t30.5 42.5h77zM180 0h-130v590h130v-590z" />
    <glyph glyph-name="Obreve" unicode="&#x14e;" 
d="M467 968q-4 -68 -46.5 -104.5t-109.5 -36.5q-69 0 -112.5 35.5t-51.5 105.5h81q10 -30 29 -40t49 -10q32 0 53.5 8.5t30.5 41.5h77zM555 180q0 -38 -14 -70.5t-38.5 -57t-57.5 -38.5t-70 -14h-140q-38 0 -70.5 14t-57 38t-38.5 57t-14 71v430q0 37 14 70t38.5 57.5
t57 38.5t70.5 14h140q37 0 70 -14t57.5 -38.5t38.5 -57.5t14 -70v-430zM415 206v378q0 70 -70 70h-80q-70 0 -70 -70v-378q0 -70 70 -70h80q34 0 52 18.5t18 51.5z" />
    <glyph glyph-name="obreve" unicode="&#x14f;" horiz-adv-x="515" 
d="M417 773q-5 -69 -47.5 -105.5t-109.5 -36.5q-69 0 -112.5 36t-50.5 106h80q11 -31 30 -41t49 -10q32 0 53 8.5t31 42.5h77zM465 140q0 -30 -10.5 -56t-29.5 -44.5t-44.5 -29t-55.5 -10.5h-135q-30 0 -55.5 10.5t-44.5 29t-29.5 44.5t-10.5 56v310q0 30 10.5 56t29.5 44.5
t44.5 29t55.5 10.5h135q30 0 55.5 -10.5t44.5 -29.5t29.5 -45t10.5 -56v-309zM335 177v236q0 51 -50 51h-55q-50 0 -50 -51v-236q0 -51 50 -51h55q50 0 50 51z" />
    <glyph glyph-name="Ubreve" unicode="&#x16c;" 
d="M467 968q-4 -68 -46.5 -104.5t-109.5 -36.5q-69 0 -112.5 35.5t-51.5 105.5h81q10 -30 29 -40t49 -10q32 0 53.5 8.5t30.5 41.5h77zM555 180q0 -38 -14 -70.5t-38.5 -57t-57.5 -38.5t-70 -14h-140q-38 0 -71 14t-57 38.5t-38 57t-14 70.5v610h140v-584q0 -70 70 -70h80
q70 0 70 70v584h140v-610z" />
    <glyph glyph-name="ubreve" unicode="&#x16d;" horiz-adv-x="503" 
d="M413 772q-4 -69 -46.5 -105.5t-109.5 -36.5q-69 0 -112.5 36t-51.5 106h81q11 -31 29.5 -41t49.5 -10t52.5 8.5t30.5 42.5h77zM453 0h-130v36q-12 -15 -37 -26t-48 -11h-49q-30 0 -55.5 11t-44 30t-29 45t-10.5 56v449h130v-414q0 -50 50 -50h43q50 0 50 50v414h130v-590
z" />
    <glyph glyph-name="Itilde" unicode="&#x128;" horiz-adv-x="250" 
d="M287 965v-20q-2 -54 -25.5 -79t-74.5 -25q-17 0 -33.5 6t-32 13l-29.5 13t-26 6q-32 0 -32 -37h-71v19q2 54 25.5 79.5t74.5 24.5q18 0 33.5 -6t30 -13t28.5 -13t30 -6q17 0 24 11t7 27h71zM195 0h-140v790h140v-790z" />
    <glyph glyph-name="itilde" unicode="&#x129;" horiz-adv-x="230" 
d="M277 765v-20q-2 -54 -25.5 -79.5t-74.5 -25.5q-17 0 -33.5 6t-32 13l-29.5 13.5t-26 6.5q-32 0 -32 -37h-71v19q2 54 25.5 79t74.5 25q18 0 33.5 -6t30 -13t28.5 -13t30 -6q17 0 24 10.5t7 27.5h71zM180 0h-130v590h130v-590z" />
    <glyph glyph-name="Utilde" unicode="&#x168;" 
d="M467 963v-20q-2 -54 -25.5 -79t-74.5 -25q-17 0 -33.5 6t-32 13l-29.5 13t-26 6q-32 0 -32 -37h-71v19q2 54 25.5 79.5t74.5 24.5q18 0 33.5 -6t30 -13t28.5 -13t30 -6q17 0 24 11t7 27h71zM555 180q0 -38 -14 -70.5t-38.5 -57t-57.5 -38.5t-70 -14h-140q-38 0 -71 14
t-57 38.5t-38 57t-14 70.5v610h140v-584q0 -70 70 -70h80q70 0 70 70v584h140v-610z" />
    <glyph glyph-name="utilde" unicode="&#x169;" horiz-adv-x="503" 
d="M413 763v-20q-2 -54 -25.5 -79.5t-74.5 -25.5q-17 0 -33.5 6t-32 13l-29.5 13.5t-26 6.5q-32 0 -32 -37h-71v19q2 54 25.5 79t74.5 25q18 0 33.5 -6t30 -13t28.5 -13t30 -6q17 0 24 10.5t7 27.5h71zM453 0h-130v36q-12 -15 -37 -26t-48 -11h-49q-30 0 -55.5 11t-44 30
t-29 45t-10.5 56v449h130v-414q0 -50 50 -50h43q50 0 50 50v414h130v-590z" />
    <glyph glyph-name="Wgrave" unicode="&#x1e80;" 
d="M402 877l-53 -52l-153 123l79 84zM556 790l-44 -790h-132l-64 237q-1 4 -3 7.5t-7 3.5t-7 -3.5t-3 -7.5l-65 -237h-131l-45 790h141l22 -385q0 -3 1 -7t5 -4t6 4t3 7l62 229q1 4 3.5 7.5t7.5 3.5t7.5 -3.5t3.5 -7.5l61 -229q1 -3 3 -7t6 -4t5 4t1 7l22 385h141z" />
    <glyph glyph-name="wgrave" unicode="&#x1e81;" horiz-adv-x="575" 
d="M387 681l-53 -52l-153 123l79 84zM555 590l-95 -590h-109l-54 182q-4 11 -9 11t-9 -11l-54 -182h-109l-96 590h133l43 -301q1 -3 3 -7.5t6 -4.5q5 0 6.5 4.5l2.5 7.5l63 188q2 8 5 10t6 2t6 -2t5 -10l62 -188q1 -3 3 -7.5t6 -4.5q5 0 7 4.5t2 7.5l43 301h133z" />
    <glyph glyph-name="Ygrave" unicode="&#x1ef2;" 
d="M399 877l-53 -52l-153 123l79 84zM555 742q0 -50 -25 -106l-155 -345v-291h-140v291l-155 345q-14 29 -19.5 55t-5.5 52v47h140v-31q0 -15 3 -32.5t10 -32.5l97 -226l97 226q7 16 10 33t3 32v31h140v-48z" />
    <glyph glyph-name="ygrave" unicode="&#x1ef3;" horiz-adv-x="500" 
d="M343 681l-53 -52l-153 123l79 84zM480 590l-186 -661q-9 -34 -26 -58.5t-39 -40t-48 -23t-54 -7.5h-54v126h40q52 0 67 52l6 22l-166 590h133l87 -341q1 -3 3 -7.5t6 -4.5q5 0 6.5 4.5l2.5 7.5l89 341h133z" />
    <glyph glyph-name="Wdieresis" unicode="&#x1e84;" 
d="M462 840h-121v115h121v-115zM266 840h-120v115h120v-115zM556 790l-44 -790h-132l-64 237q-1 4 -3 7.5t-7 3.5t-7 -3.5t-3 -7.5l-65 -237h-131l-45 790h141l22 -385q0 -3 1 -7t5 -4t6 4t3 7l62 229q1 4 3.5 7.5t7.5 3.5t7.5 -3.5t3.5 -7.5l61 -229q1 -3 3 -7t6 -4t5 4
t1 7l22 385h141z" />
    <glyph glyph-name="wdieresis" unicode="&#x1e85;" horiz-adv-x="575" 
d="M446 640h-121v114h121v-114zM250 640h-119v114h119v-114zM555 590l-95 -590h-109l-54 182q-4 11 -9 11t-9 -11l-54 -182h-109l-96 590h133l43 -301q1 -3 3 -7.5t6 -4.5q5 0 6.5 4.5l2.5 7.5l63 188q2 8 5 10t6 2t6 -2t5 -10l62 -188q1 -3 3 -7.5t6 -4.5q5 0 7 4.5t2 7.5
l43 301h133z" />
    <glyph glyph-name="Hbar" unicode="&#x126;" horiz-adv-x="620" 
d="M590 546h-30v-546h-140v327h-220v-327h-140v546h-30v110h30v134h140v-134h220v134h140v-134h30v-110zM420 463v83h-220v-83h220z" />
    <glyph glyph-name="hbar" unicode="&#x127;" horiz-adv-x="533" 
d="M483 0h-130v413q0 51 -50 51h-63q-50 0 -50 -51v-413h-130v645h-49v96h49v49h130v-49h127v-96h-127v-91q12 15 37 25.5t48 10.5h68q30 0 55.5 -10.5t44.5 -29.5t29.5 -45t10.5 -56v-449z" />
    <glyph glyph-name="Tbar" unicode="&#x166;" 
d="M555 654h-180v-139h120v-120h-120v-395h-140v395h-130v120h130v139h-180v136h500v-136z" />
    <glyph glyph-name="tbar" unicode="&#x167;" horiz-adv-x="358" 
d="M333 0h-128q-30 0 -55.5 10.5t-44.5 29.5t-29.5 45t-10.5 56v120h-49v114h49v84h-50v126h50v121l130 33v-154h128v-126h-128v-84h127v-114h-127v-85q0 -50 50 -50h88v-126z" />
    <glyph glyph-name="Eng" unicode="&#x14a;" 
d="M555 0v-116q0 -29 -9 -55.5t-26 -46.5t-41.5 -32t-55.5 -12q-29 0 -54 12t-43 32.5t-27.5 46.5t-9.5 54v27h94v-9t0.5 0t0.5 0v-9q0 -29 9 -46t29 -17q22 0 29.5 17t8.5 49l1 105h-37l-229 460v-460h-140v790h132l228 -462v462h140v-769v-21z" />
    <glyph glyph-name="eng" unicode="&#x14b;" horiz-adv-x="503" 
d="M453 0v-116q0 -29 -8.5 -55.5t-25 -46.5t-39.5 -32t-52 -12q-27 0 -50.5 12t-40.5 32.5t-26.5 46.5t-9.5 55v21l81 -1v-11q0 -31 10 -52.5t35 -21.5q27 0 35.5 22t9.5 55l1 104h-50v413q0 51 -50 51h-43q-50 0 -50 -51v-413h-130v590h130v-36q12 15 37 25.5t48 10.5h49
q30 0 55.5 -10.5t44 -29.5t29 -45t10.5 -56v-428v-21z" />
    <glyph glyph-name="IJ" unicode="&#x132;" horiz-adv-x="800" 
d="M745 180q0 -38 -14 -70.5t-38.5 -57t-57.5 -38.5t-70 -14h-140q-36 0 -67.5 12.5t-55 34.5t-38.5 51.5t-19 64.5l140 35q0 -26 18 -44t52 -18h80q70 0 70 70v584h140v-610zM195 0h-140v790h140v-790z" />
    <glyph glyph-name="ij" unicode="&#x133;" horiz-adv-x="452" 
d="M402 663h-130v126h130v-126zM180 663h-130v126h130v-126zM402 -74q0 -61 -35 -93.5t-95 -32.5h-90v126h40q50 0 50 50v614h130v-664zM180 0h-130v590h130v-590z" />
    <glyph glyph-name="Ldot" unicode="&#x13f;" 
d="M465 360h-140v136h140v-136zM555 0h-500v790h140v-654h360v-136z" />
    <glyph glyph-name="ldot" unicode="&#x140;" horiz-adv-x="382" 
d="M407 359h-140v136h140v-136zM180 0h-130v790h130v-790z" />
    <glyph glyph-name="Bdotaccent" unicode="&#x1e02;" 
d="M362 839h-140v136h140v-136zM555 180q0 -38 -14 -70.5t-38.5 -57t-57.5 -38.5t-70 -14h-320v136h40v518h-40v136h320q37 0 70 -14t57.5 -38.5t38.5 -57.5t14 -70v-83q0 -33 -7 -55.5t-17.5 -37.5t-22 -24t-20.5 -14q10 -6 21.5 -15t21.5 -23.5t17 -36.5t7 -56v-85z
M415 532v52q0 70 -70 70h-110v-192h110q70 0 70 70zM415 206v50q0 70 -70 70h-110v-190h110q34 0 52 18.5t18 51.5z" />
    <glyph glyph-name="bdotaccent" unicode="&#x1e03;" horiz-adv-x="523" 
d="M377 640h-140v136h140v-136zM473 140q0 -30 -10.5 -56t-29 -44.5t-44 -29t-55.5 -10.5h-79q-26 0 -49 7.5t-38 26.5l-13 -34h-105v790h130v-236q15 19 37 27.5t48 8.5h69q30 0 55.5 -10.5t44 -29t29 -44.5t10.5 -56v-310zM343 177v236q0 51 -50 51h-63q-50 0 -50 -51
v-236q0 -51 50 -51h63q50 0 50 51z" />
    <glyph glyph-name="Cdotaccent" unicode="&#x10a;" 
d="M383 840h-140v136h140v-136zM555 163q-3 -32 -17.5 -61.5t-38 -52t-55.5 -36t-69 -13.5h-140q-38 0 -70.5 14t-57 38.5t-38.5 57t-14 70.5v430q0 37 14 70t38.5 57.5t57 38.5t70.5 14h140q37 0 69 -13.5t55.5 -36t38 -52.5t17.5 -63l-140 -35q0 26 -18 45t-52 19h-80
q-70 0 -70 -70v-378q0 -70 70 -70h80q33 0 51.5 16.5t18.5 45.5z" />
    <glyph glyph-name="cdotaccent" unicode="&#x10b;" horiz-adv-x="515" 
d="M329 640h-140v136h140v-136zM465 138q0 -30 -11 -55.5t-29.5 -43.5t-43.5 -28.5t-55 -10.5h-137q-30 0 -55.5 10.5t-44 29t-29 44.5t-10.5 56v310q0 30 10.5 56t29 44.5t44 29t55.5 10.5h137q30 0 55.5 -10.5t44 -28.5t29 -43.5t10.5 -55.5l-130 -33q-3 45 -50 45h-55
q-50 0 -50 -51v-236q0 -51 50 -51h55q47 0 50 45z" />
    <glyph glyph-name="Ddotaccent" unicode="&#x1e0a;" 
d="M374 836h-140v136h140v-136zM555 180q0 -38 -14 -70.5t-38.5 -57t-57.5 -38.5t-70 -14h-320v136h40v518h-40v136h320q37 0 70 -14t57.5 -38.5t38.5 -57.5t14 -70v-430zM415 206v378q0 70 -70 70h-110v-518h110q70 0 70 70z" />
    <glyph glyph-name="ddotaccent" unicode="&#x1e0b;" horiz-adv-x="523" 
d="M279 640h-140v136h140v-136zM473 0h-104l-15 35q-27 -35 -84 -35h-81q-30 0 -55.5 10.5t-44 29t-29 44.5t-10.5 56v310q0 30 10.5 56t29 44.5t44 29t55.5 10.5h69q26 0 48 -8.5t37 -27.5v236h130v-790zM343 177v236q0 51 -50 51h-63q-50 0 -50 -51v-236q0 -51 50 -51h63
q50 0 50 51z" />
    <glyph glyph-name="Edotaccent" unicode="&#x116;" 
d="M377 835h-140v136h140v-136zM555 0h-500v790h500v-136h-360v-191h260v-136h-260v-191h360v-136z" />
    <glyph glyph-name="edotaccent" unicode="&#x117;" horiz-adv-x="508" 
d="M323 640h-140v136h140v-136zM458 228h-278v-51q0 -51 51 -51h49q26 0 37 11.5t13 33.5l123 -31v-9q0 -61 -39.5 -96t-100.5 -35h-122q-30 0 -56 10.5t-45 29t-29.5 44.5t-10.5 56v310q0 30 10.5 55.5t29 44.5t44 29.5t55.5 10.5h129q30 0 56 -10.5t44.5 -29.5t29 -45
t10.5 -56v-221zM328 414q1 50 -50 50h-47q-27 0 -39 -12t-12 -38v-59h148v59z" />
    <glyph glyph-name="Fdotaccent" unicode="&#x1e1e;" 
d="M377 840h-140v136h140v-136zM555 654h-360v-191h260v-136h-260v-327h-140v790h500v-136z" />
    <glyph glyph-name="fdotaccent" unicode="&#x1e1f;" horiz-adv-x="348" 
d="M265 838h-140v136h140v-136zM333 663h-88q-50 0 -50 -50v-28h128v-126h-128v-459h-130v459h-50v126h50v63q0 30 10.5 56t29.5 45t44.5 29.5t55.5 10.5h128v-126z" />
    <glyph glyph-name="Gdotaccent" unicode="&#x120;" 
d="M377 839h-140v136h140v-136zM555 180q0 -38 -14 -70.5t-38.5 -57t-57.5 -38.5t-70 -14h-140q-38 0 -70.5 14t-57 38.5t-38.5 57t-14 70.5v430q0 37 14 70t38.5 57.5t57 38.5t70.5 14h140q37 0 68 -12.5t54.5 -34.5t38 -51.5t19.5 -63.5l-140 -35q0 24 -18 42.5t-52 18.5
h-80q-70 0 -70 -70v-378q0 -70 70 -70h80q70 0 70 70v75h-100v136h240v-237z" />
    <glyph glyph-name="gdotaccent" unicode="&#x121;" horiz-adv-x="523" 
d="M335 640h-140v136h140v-136zM473 -61q0 -30 -10.5 -55.5t-29 -44t-44.5 -29t-56 -10.5h-128q-61 0 -100.5 35t-39.5 96v9l123 31q2 -22 13 -33.5t38 -11.5h54q50 0 50 51v87q-12 -15 -37 -25.5t-48 -10.5h-69q-30 0 -55.5 10.5t-44 29t-29 44.5t-10.5 56v283
q0 30 10.5 55.5t29 44t44 29t55.5 10.5h79q26 0 49.5 -9.5t35.5 -23.5l15 33h105v-651zM343 205v208q0 51 -50 51h-63q-50 0 -50 -51v-208q0 -50 50 -50h63q50 0 50 50z" />
    <glyph glyph-name="Idotaccent" unicode="&#x130;" horiz-adv-x="250" 
d="M195 836h-140v136h140v-136zM195 0h-140v790h140v-790z" />
    <glyph glyph-name="Mdotaccent" unicode="&#x1e40;" 
d="M375 840h-140v136h140v-136zM555 0h-140v376q0 2 -1 7.5t-5 5.5q-3 0 -5.5 -4.5t-3.5 -6.5l-84 -227q-2 -4 -4 -7.5t-7 -3.5t-7 3.5t-4 7.5l-84 226l-3 6t-6 4t-5 -4.5t-1 -7.5v-375h-140v790h130l111 -310q1 -2 3.5 -7.5t5.5 -5.5t5.5 5.5t3.5 7.5l111 310h130v-790z
" />
    <glyph glyph-name="mdotaccent" unicode="&#x1e41;" horiz-adv-x="737" 
d="M439 640h-140v136h140v-136zM687 0h-130v413q0 51 -50 51h-23q-50 0 -50 -51v-413h-131v413q0 51 -50 51h-23q-50 0 -50 -51v-413h-130v590h130v-36q12 15 37 25.5t48 10.5h34q38 0 65 -15t42 -38q15 23 42.5 38t65.5 15h34q30 0 55.5 -10.5t44 -29.5t29 -45t10.5 -56
v-449z" />
    <glyph glyph-name="Pdotaccent" unicode="&#x1e56;" 
d="M359 839h-140v136h140v-136zM555 507q0 -38 -14 -70.5t-38.5 -57t-57.5 -38.5t-70 -14h-180v-327h-140v790h320q37 0 70 -14t57.5 -38.5t38.5 -57.5t14 -70v-103zM415 533v51q0 70 -70 70h-150v-191h150q70 0 70 70z" />
    <glyph glyph-name="pdotaccent" unicode="&#x1e57;" horiz-adv-x="523" 
d="M334 640h-140v136h140v-136zM473 140q0 -30 -10.5 -56t-29 -44.5t-44 -29t-55.5 -10.5h-69q-26 0 -48 8.5t-37 27.5v-236h-130v790h104l15 -35q15 19 37.5 27t48.5 8h79q30 0 55.5 -10.5t44 -29t29 -44.5t10.5 -56v-310zM343 177v236q0 51 -50 51h-63q-50 0 -50 -51v-236
q0 -50 50 -50h63q50 0 50 50z" />
    <glyph glyph-name="Sdotaccent" unicode="&#x1e60;" 
d="M379 839h-140v136h140v-136zM555 180q0 -38 -14 -70.5t-38.5 -57t-57.5 -38.5t-70 -14h-140q-38 0 -69 13t-54.5 35.5t-38 52.5t-18.5 65l140 35q2 -31 19 -48t51 -17h80q70 0 70 70v27q0 26 -9.5 39.5t-35.5 24.5l-182 73q-26 10 -49.5 25.5t-42.5 38t-30 51.5t-11 66
v59q0 37 14 70t38.5 57.5t57 38.5t70.5 14h140q38 0 69.5 -13.5t55 -36.5t38 -52.5t17.5 -61.5l-140 -35q-2 29 -19 46t-51 17h-80q-70 0 -70 -70v-10q0 -34 7.5 -50.5t33.5 -26.5l188 -75q58 -23 94.5 -63t36.5 -102v-77z" />
    <glyph glyph-name="sdotaccent" unicode="&#x1e61;" horiz-adv-x="515" 
d="M330 640h-140v136h140v-136zM465 140q0 -30 -10.5 -56t-29 -44.5t-44 -29t-55.5 -10.5h-136q-30 0 -55.5 10.5t-44 28.5t-29.5 43.5t-11 55.5l130 33q2 -23 13.5 -34t37.5 -11h54q50 0 50 46v4q0 11 -7 19.5t-25 15.5l-147 54q-18 7 -37 19.5t-34.5 30.5t-25 42t-9.5 53
v40q0 30 10.5 55.5t29 44.5t44 29.5t55.5 10.5h137q30 0 55.5 -10.5t44 -28.5t29 -43.5t10.5 -55.5l-130 -33q-3 45 -50 45h-55q-26 0 -38 -11t-12 -30v-6q0 -14 5.5 -22.5t22.5 -14.5l155 -57q20 -7 38.5 -19t32.5 -30t22.5 -41.5t8.5 -53.5v-39z" />
    <glyph glyph-name="Tdotaccent" unicode="&#x1e6a;" 
d="M375 840h-140v136h140v-136zM555 654h-180v-654h-140v654h-180v136h500v-136z" />
    <glyph glyph-name="tdotaccent" unicode="&#x1e6b;" horiz-adv-x="358" 
d="M205 790h-140v136h140v-136zM333 0h-128q-30 0 -55.5 10.5t-44.5 29.5t-29.5 45t-10.5 56v318h-50v126h50v121l130 33v-154h128v-126h-128v-283q0 -50 50 -50h88v-126z" />
    <glyph glyph-name="Zdotaccent" unicode="&#x17b;" 
d="M378 840h-140v136h140v-136zM555 0h-500v130l336 525h-336v136l500 -1v-130l-335 -524h335v-136z" />
    <glyph glyph-name="zdotaccent" unicode="&#x17c;" horiz-adv-x="512" 
d="M324 640h-140v136h140v-136zM462 0h-412v100l247 364h-247v126h412v-100l-246 -364h246v-126z" />
    <glyph glyph-name="tironianet" unicode="&#x204a;" horiz-adv-x="475" 
d="M425 590v-105l-109 -587h-136l107 566h-237v126h375z" />
    <glyph glyph-name="longs" unicode="&#x17f;" horiz-adv-x="333" 
d="M333 663h-88q-50 0 -50 -50v-613h-130v454h-50v126h50v68q0 30 10.5 56t29.5 45t44.5 29.5t55.5 10.5h128v-126z" />
    <glyph glyph-name="softhyphen" unicode="&#xad;" horiz-adv-x="320" 
d="M300 275h-280v136h280v-136z" />
    <glyph glyph-name="commabelow" unicode="&#x326;" horiz-adv-x="760" 
d="M446 -85l-98 -206l-70 24l51 223z" />
    <glyph glyph-name="rublesign" unicode="&#x20bd;" horiz-adv-x="620" 
d="M565 512q0 -38 -14 -70.5t-38.5 -57t-57.5 -38.5t-70 -14h-180v-79h200v-136h-200v-117h-140v117h-40v136h40v79h-40v136h40v322h320q37 0 70 -14t57.5 -38.5t38.5 -57.5t14 -70v-98zM425 538v46q0 70 -70 70h-150v-186h150q70 0 70 70z" />
    </font>
</defs>
</svg>
